<?xml version="1.0" encoding="utf-8"?>
<!-- Generator: Adobe Illustrator 26.0.2, SVG Export Plug-In . SVG Version: 6.00 Build 0)  -->
<svg version="1.1" id="Layer_1" xmlns="http://www.w3.org/2000/svg" xmlns:xlink="http://www.w3.org/1999/xlink" x="0px" y="0px"
	 viewBox="0 0 342.5 256.6" style="enable-background:new 0 0 342.5 256.6;" xml:space="preserve">
<style type="text/css">
	.st0{fill:#F5EB0D;}
	.st1{fill:#FFFFFF;}
	.st2{fill:#B42F25;}
</style>
<path class="st0" d="M49.5,211.9c-33.7-30.3-50.6-73.5-26-125c1.9-4,27-35.9,27.3-35.2C44.5,35.1,40,17.7,37.2,0
	c21,2.6,36.6,21.8,57.3,26c8.7,1.8,17.7,0.7,26.5,0c34.6-2.9,69.4-1.5,103.7,4.3c9.8,1.7,19.6,3.7,29.6,3.5
	c23.7-0.4,45.3-12.9,65.7-25c-0.8,17.1-7.3,33.5-18.4,46.5c3.5-4.1,31.4,67.7,31.4,77.7C333,273,132.2,286.3,49.5,211.9z"/>
<path class="st1" d="M241.1,96.6c13.1-0.7,26.2-0.4,39.2,1.1l-2.4-1.8c3.8,11.2-3.3,23.5-15.5,24.1c-13.2,0.6-19.5-11.7-21-23.1
	c-0.4-3.1-5.4-3.2-5,0c1.9,14.6,10.6,29.7,27.4,28c14.6-1.5,23.6-16.5,18.9-30.3c-0.3-1.1-1.3-1.8-2.4-1.8
	c-13-1.4-26.1-1.8-39.2-1.1C237.9,91.8,237.9,96.8,241.1,96.6z"/>
<path class="st1" d="M79.2,96l37.8,2.2l-2.5-2.5c-0.6,11.5-9.8,22.9-21.9,23.2c-11.5,0.3-21.8-11.3-19.6-22.7
	c0.6-3.1-4.2-4.5-4.8-1.3c-2.8,14.1,8.7,28.3,23,29c15.4,0.7,27.5-13.6,28.3-28.2c0-1.4-1.1-2.5-2.5-2.5L79.2,91
	C76,90.8,76,95.8,79.2,96z"/>
<path class="st1" d="M68,96l13.4,1.9c3.2,0.4,4.5-4.4,1.3-4.8l-13.4-1.9C66.2,90.8,64.9,95.6,68,96z"/>
<path class="st1" d="M84.2,95.2c-6,4.2-3.6,13.5,3.4,15.1c9,2,14.4-6.9,16.2-14.3c0.3-1.4-0.5-2.7-1.8-3.1c-0.2,0-0.4-0.1-0.6-0.1
	c-4.7-0.6-11.4-0.4-13.2,5.1c-1.2,4,0.9,8.6,5.4,8.7c1.4,0,2.5-1.2,2.5-2.6c0-0.6-0.3-1.2-0.7-1.7c-1.8-1.9-4.9-2-6.8-0.2
	c-0.3,0.3-0.6,0.6-0.8,1c-1.8,2.7,2.5,5.2,4.3,2.5l-0.2,0.2l1.8-4.3c-1.8,0-0.1-3.1,0.7-3.5c2.1-1.1,4.9-0.6,7.1-0.4L99,94.7
	c-1,4.1-2.7,9.1-7.1,10.5c-1.7,0.6-4,0.6-5.3-0.9c-1-1.2-1.3-3.7,0.2-4.7C89.3,97.7,86.8,93.3,84.2,95.2L84.2,95.2z"/>
<path class="st1" d="M253.1,95.5c-5.9,5-1.6,14.6,5.6,15.1c9.2,0.7,13.8-8.7,13.2-16.6h-5c0.4,3.2-1.4,6.3-4.4,7.6l3.1,1.7
	c-0.7-2.2-1.4-4.4-2.1-6.7c-0.4-1.3-1.8-2.1-3.1-1.7c-4.4,1.1-5.5,6.2-2.9,9.5c2,2.5,5.5-1,3.5-3.5c-0.4-0.5,0.4-1.1,0.7-1.2
	l-3.1-1.8c0.7,2.2,1.4,4.4,2.1,6.7c0.4,1.3,1.7,2.1,3.1,1.8c5.1-1.9,8.4-6.9,8-12.4c-0.3-3.2-5.2-3.2-5,0c0.4,4.5-0.7,10.2-5.8,11.4
	c-3.8,1-8.1-3.3-4.5-6.4C259.1,96.9,255.5,93.4,253.1,95.5L253.1,95.5z"/>
<path class="st2" d="M172.8,130.4c-3.7-2.2-8.4-1-10.6,2.6c0,0.1-0.1,0.2-0.1,0.2c-2.5,4.6,0.5,10.2,4.9,12.3
	c9.5,4.6,23.3-5.5,17.2-15.8c-5.4-9.1-19-3.9-17.6,6.4c1.3,9.8,15.1,9.2,18,0.9c0.3-0.9,0-1.8-0.6-2.4c-4.6-4.4-12.6-2.2-14,4.2
	c-0.3,1.3,0.4,2.7,1.7,3.1c2.5,0.7,5-0.8,5.7-3.3c0.4-1.6,0-3.2-1.1-4.4c-1-1-2.6-0.9-3.6,0.1c-0.4,0.5-0.7,1.1-0.7,1.7
	c1.1,16.4,2.9,32.9,2.2,49.4c-0.5,11.9-3.3,26-15.1,31.7l3,3.9l17.3-15.9l-4.2-1.1c1.7,6.4,5.4,12.2,10.6,16.4c2.5,2,6-1.5,3.5-3.5
	c-4.5-3.6-7.8-8.6-9.3-14.1c-0.4-1.3-1.8-2.1-3.1-1.7c-0.4,0.1-0.7,0.3-1,0.6l-17.2,15.9c-2.2,2,0.6,5.1,3,3.9
	c11.5-5.6,15.8-18.4,17.1-30.3c2-18.1-0.6-36.9-1.8-55l-4.3,1.8l0.2-0.7l1.8,3.1c0.3-1.9,2-3.1,3.9-2.9c0.7,0.1,1.3,0.4,1.8,0.9
	c-0.2-0.8-0.4-1.6-0.6-2.4c-1,2.7-5.4,4-7.5,1.7c-3.3-3.7,2.6-9.6,6.4-6.4c3.8,3.2,1.7,7.5-2.1,9.4c-2.2,1.3-4.8,1.5-7.1,0.5
	c-2-0.4-3.1-1.7-3.4-3.9c0.7-2.5,2.1-3.2,4.1-2.2C173,136.4,175.5,132.1,172.8,130.4L172.8,130.4z"/>
<path class="st2" d="M277.8,163.8c20.5-4.4,41.4-7.4,62.3-9.1c3.2-0.2,3.2-5.3,0-5c-21.4,1.7-42.7,4.8-63.6,9.3
	C273.3,159.7,274.7,164.5,277.8,163.8L277.8,163.8z"/>
<path class="st2" d="M277.9,183.6c16.5-2.7,33.5-1.7,49.6,2.7c3.1,0.9,4.4-4,1.3-4.8c-17-4.7-34.9-5.6-52.3-2.7
	C273.4,179.3,274.7,184.1,277.9,183.6L277.9,183.6z"/>
<path class="st2" d="M275,204.2l28.4,7.9c3.1,0.9,4.4-4,1.3-4.8l-28.4-7.9C273.3,198.5,271.9,203.3,275,204.2z"/>
<path class="st2" d="M3,169c17.6-6.6,36.4-9.5,55.2-8.8c3.2,0.1,3.2-4.9,0-5c-19.2-0.8-38.5,2.2-56.5,8.9C-1.3,165.3,0,170.1,3,169
	L3,169z"/>
<path class="st2" d="M11.8,192.6c13-8.3,27.4-14.1,42.5-17.1c3.2-0.6,1.8-5.4-1.3-4.8c-15.5,3.1-30.4,9.1-43.7,17.6
	C6.5,190,9,194.3,11.8,192.6z"/>
<path class="st2" d="M25.7,215.9c9.6-8.9,20.5-16.5,32.2-22.4c2.9-1.4,0.3-5.8-2.5-4.3c-12.1,6.1-23.3,13.9-33.3,23.2
	C19.8,214.6,23.3,218.1,25.7,215.9L25.7,215.9z"/>
<path class="st2" d="M121,134.7c-24,13.2-84.6-0.9-72.1-39.2c3.2-10,20.7-19.3,41.6-7.3c-4.1-11.4-5.6-25.9,3.6-32.8
	c22.1-16.6,36.8,13.2,37.6,41.9C132.1,112.2,124.8,132.7,121,134.7z"/>
<path class="st2" d="M238.8,134.8c-21-14.9-33.8-72.1,3.8-77.1c9.8-1.3,24.8,9.7,23.2,32.3c8-8.1,19.7-15.3,29.3-10.4
	c23.1,12,3.9,36.6-20.2,49C262.5,135,242.1,137.1,238.8,134.8z"/>
</svg>
