<svg xmlns="http://www.w3.org/2000/svg" viewBox="0 0 437.67 381.62"><defs><style>.cls-1{fill:#ddedfb;}.cls-1,.cls-10,.cls-11,.cls-12,.cls-13,.cls-14,.cls-15,.cls-16,.cls-17,.cls-18,.cls-19,.cls-2,.cls-20,.cls-3,.cls-4,.cls-5,.cls-6,.cls-7,.cls-8,.cls-9{fill-rule:evenodd;}.cls-2{fill:#59756f;}.cls-3{fill:#4e6566;}.cls-4{fill:#f4dfc4;}.cls-5{fill:#d2bc9b;}.cls-6{fill:#504236;}.cls-7{fill:#eabb56;}.cls-8{fill:#efd3d3;}.cls-9{fill:#c8a04c;}.cls-10{fill:#fff;}.cls-11{fill:#655d57;}.cls-12{fill:#cb5250;}.cls-13{fill:#d8d8d8;}.cls-14{fill:#20201e;}.cls-15{fill:#faf4e6;}.cls-16{fill:#ddd1b8;}.cls-17{fill:#c9b08c;}.cls-18{fill:#ddc498;}.cls-19{fill:#514c47;}.cls-20{fill:#cd5a4a;}</style></defs><g id="OBJECTS"><path class="cls-1" d="M220.32,46.48C132.32,46.48,61,123.62,61,218.79c0,48.76,18.74,92.79,48.84,124.14h221c30.1-31.35,48.84-75.38,48.84-124.14C379.65,123.62,308.31,46.48,220.32,46.48Z" transform="translate(-6.98 -7.97)"/><path class="cls-2" d="M36.67,222a.91.91,0,0,1-.26-1.23.88.88,0,0,1,1.13-.52C50.45,227,68.68,243.6,82.46,261.82c11.39,15.06,19.77,31.28,19.67,44.07a1.11,1.11,0,0,1-.82,1.08.7.7,0,0,1-.82-.78c.1-12.34-8.14-28.19-19.34-43C67.48,245.12,49.43,228.67,36.67,222Z" transform="translate(-6.98 -7.97)"/><path class="cls-2" d="M52.17,231.37s-1.73-5.19-9-10c-10.67-7-17.65-4.8-17.12-1.29C26.62,224.16,38.19,230.92,52.17,231.37Z" transform="translate(-6.98 -7.97)"/><path class="cls-2" d="M58.11,237.22s2.81-4.7,1.68-13.34c-1.66-12.66-7.86-16.53-10.19-13.83C46.93,213.14,49.34,226.32,58.11,237.22Z" transform="translate(-6.98 -7.97)"/><path class="cls-2" d="M58.11,237.22s-3.92,3.81-12.6,4.7c-12.69,1.3-17.88-3.85-15.8-6.73C32.11,231.87,45.49,231.19,58.11,237.22Z" transform="translate(-6.98 -7.97)"/><path class="cls-2" d="M72.5,251.67s3.07-4.53,2.43-13.22C74,225.72,68,221.51,65.55,224.06,62.7,227,64.36,240.29,72.5,251.67Z" transform="translate(-6.98 -7.97)"/><path class="cls-2" d="M72.5,251.67s-4.13,3.58-12.84,4c-12.75.58-17.64-4.85-15.4-7.61C46.84,244.86,60.24,244.94,72.5,251.67Z" transform="translate(-6.98 -7.97)"/><path class="cls-2" d="M85.63,267.52s3.49-4.21,3.7-12.93c.31-12.75-5.22-17.53-7.94-15.23C78.27,242,78.64,255.4,85.63,267.52Z" transform="translate(-6.98 -7.97)"/><path class="cls-2" d="M85.63,267.52s-4.46,3.16-13.17,2.71c-12.74-.66-17.08-6.55-14.58-9.07C60.76,258.24,74.08,259.63,85.63,267.52Z" transform="translate(-6.98 -7.97)"/><path class="cls-2" d="M94.57,282.86s4.09-3.63,5.62-12.22c2.24-12.56-2.5-18.12-5.53-16.25C91.17,256.53,89.5,269.82,94.57,282.86Z" transform="translate(-6.98 -7.97)"/><path class="cls-2" d="M94.57,282.86s-4.89,2.45-13.43.68c-12.49-2.59-15.89-9.07-13-11.19C71.39,269.92,84.35,273.3,94.57,282.86Z" transform="translate(-6.98 -7.97)"/><path class="cls-2" d="M100.77,299.45s4.3-3.36,6.37-11.84c3-12.39-1.38-18.24-4.52-16.57C99,273,96.51,286.13,100.77,299.45Z" transform="translate(-6.98 -7.97)"/><path class="cls-2" d="M100.77,299.45s-5,2.14-13.45-.15c-12.31-3.36-15.3-10-12.31-12C78.44,285.1,91.16,289.28,100.77,299.45Z" transform="translate(-6.98 -7.97)"/><path class="cls-2" d="M14.63,274a.67.67,0,0,1-.72-.6.64.64,0,0,1,.42-.82c10.64-2,29-.75,45.42,3.53,13.6,3.54,26,9.15,31.82,16.66a.83.83,0,0,1,0,1,.53.53,0,0,1-.83-.08C85.12,286.47,73,281,59.62,277.53,43.28,273.28,25.15,272,14.63,274Z" transform="translate(-6.98 -7.97)"/><path class="cls-2" d="M28,272.32s-3.41-2.23-9.87-1.65c-9.47.84-12.53,5.34-10.6,7.15C9.75,279.9,19.62,278.51,28,272.32Z" transform="translate(-6.98 -7.97)"/><path class="cls-2" d="M34.16,273s-.52-4-5.17-8.56c-6.81-6.63-12.22-6-12.34-3.38C16.52,264.09,24,270.68,34.16,273Z" transform="translate(-6.98 -7.97)"/><path class="cls-2" d="M34.16,273s-.53,4-5.18,8.56c-6.82,6.62-12.22,6-12.34,3.37C16.51,281.87,24,275.3,34.16,273Z" transform="translate(-6.98 -7.97)"/><path class="cls-2" d="M49.24,274.79s-.3-4.06-4.68-8.84c-6.42-7-11.86-6.71-12.12-4.07C32.13,264.91,39.24,271.9,49.24,274.79Z" transform="translate(-6.98 -7.97)"/><path class="cls-2" d="M49.24,274.79s-.76,4-5.66,8.26c-7.18,6.22-12.55,5.3-12.51,2.66C31.11,282.66,39,276.52,49.24,274.79Z" transform="translate(-6.98 -7.97)"/><path class="cls-2" d="M64.22,278s.1-4.07-3.8-9.26c-5.71-7.59-11.14-7.83-11.66-5.23C48.16,266.49,54.55,274.14,64.22,278Z" transform="translate(-6.98 -7.97)"/><path class="cls-2" d="M64.22,278s-1.14,3.9-6.43,7.66c-7.75,5.5-13,4.06-12.71,1.43C45.42,284.05,53.84,278.71,64.22,278Z" transform="translate(-6.98 -7.97)"/><path class="cls-2" d="M76.53,282.82s.71-4-2.36-9.73c-4.48-8.37-9.82-9.43-10.73-6.94C62.39,269,67.55,277.55,76.53,282.82Z" transform="translate(-6.98 -7.97)"/><path class="cls-2" d="M76.53,282.82s-1.73,3.69-7.53,6.6c-8.5,4.25-13.47,2-12.78-.52C57,286,66.15,282,76.53,282.82Z" transform="translate(-6.98 -7.97)"/><path class="cls-2" d="M87.81,289.65s1-3.95-1.75-9.85c-4-8.64-9.22-10-10.28-7.6C74.56,275,79.17,283.83,87.81,289.65Z" transform="translate(-6.98 -7.97)"/><path class="cls-2" d="M87.81,289.65s-2,3.58-7.93,6.12c-8.74,3.72-13.56,1.2-12.71-1.31C68.14,291.58,77.5,288.15,87.81,289.65Z" transform="translate(-6.98 -7.97)"/><path class="cls-3" d="M148.7,321.33,15,345l27-20s-12.56-16.11-5.49-23.85,19.67-2.72,19.67-2.72S55.58,279,62.3,276.69s15.81,14,15.81,14-1-20.07,10.82-22.53,19.34,5.73,17.7,16.71-3,12.76-3,12.76c15.9-13.91,28.2-19.82,19.92,11,0,0,10.22-7.92,11.8-.76s-2.83,10.24-2.83,10.24Z" transform="translate(-6.98 -7.97)"/><path class="cls-2" d="M136.57,323.68l-101,18.9,19.71-14.24S45,317.6,50,312.17s14.9-2.26,14.9-2.26c-1.12-11.75,4.8-22.17,13-11,0,0,1.9-8.44,10.78-10.36s15,3.52,14.23,11.05-1.77,8.78-1.77,8.78c11.54-9.83,20.68-14.11,15.68,7.09,0,0,7.46-5.62,9-.75s-1.73,7-1.73,7Z" transform="translate(-6.98 -7.97)"/><path class="cls-3" d="M381.59,208.83a.9.9,0,0,1,1-.82.88.88,0,0,1,1,.73c.41,14.55-5.2,38.56-14.39,59.48-7.6,17.28-17.68,32.5-28.89,38.65a1.12,1.12,0,0,1-1.35-.19.71.71,0,0,1,.29-1.09c10.81-5.93,20.64-20.85,28.11-37.85C376.43,247,382,223.21,381.59,208.83Z" transform="translate(-6.98 -7.97)"/><path class="cls-3" d="M381,226.93s3.68-4,4.3-12.74c.9-12.73-4.41-17.76-7.22-15.59C374.82,201.1,374.56,214.5,381,226.93Z" transform="translate(-6.98 -7.97)"/><path class="cls-3" d="M378.77,235s5.46.16,12.46-5c10.24-7.61,10.6-14.91,7.12-15.63C394.34,213.46,384,222,378.77,235Z" transform="translate(-6.98 -7.97)"/><path class="cls-3" d="M378.77,235s-5.24-1.57-10.25-8.71c-7.32-10.45-5.36-17.49-1.83-17.07C370.76,209.65,377.88,221,378.77,235Z" transform="translate(-6.98 -7.97)"/><path class="cls-3" d="M373.16,254.57s5.45.47,12.73-4.32c10.66-7,11.43-14.29,8-15.21C389.92,234,379.13,241.92,373.16,254.57Z" transform="translate(-6.98 -7.97)"/><path class="cls-3" d="M373.16,254.57s-5.14-1.86-9.73-9.27c-6.72-10.85-4.36-17.77-.86-17.16C366.6,228.85,373.06,240.58,373.16,254.57Z" transform="translate(-6.98 -7.97)"/><path class="cls-3" d="M365.72,273.76s5.38,1,13.09-3.07c11.29-5.94,12.76-13.1,9.43-14.35C384.41,254.91,372.89,261.75,365.72,273.76Z" transform="translate(-6.98 -7.97)"/><path class="cls-3" d="M365.72,273.76s-4.93-2.35-8.78-10.18c-5.64-11.45-2.62-18.11.81-17.15C361.69,247.52,367,259.83,365.72,273.76Z" transform="translate(-6.98 -7.97)"/><path class="cls-3" d="M356.68,289s5.16,1.81,13.41-1c12.06-4.16,14.6-11,11.5-12.76C378,273.24,365.59,278.26,356.68,289Z" transform="translate(-6.98 -7.97)"/><path class="cls-3" d="M356.68,289s-4.52-3.07-7.13-11.39c-3.83-12.17.16-18.3,3.41-16.83C356.69,262.5,360.05,275.47,356.68,289Z" transform="translate(-6.98 -7.97)"/><path class="cls-3" d="M345.21,302.54s5,2.12,13.45-.21c12.29-3.4,15.26-10.09,12.26-12C367.48,288.1,354.77,292.33,345.21,302.54Z" transform="translate(-6.98 -7.97)"/><path class="cls-3" d="M345.21,302.54s-4.32-3.35-6.41-11.81c-3.07-12.39,1.3-18.25,4.44-16.59C346.86,276.05,349.41,289.2,345.21,302.54Z" transform="translate(-6.98 -7.97)"/><path class="cls-3" d="M435.16,257.34a.8.8,0,0,1,1.1-.09.77.77,0,0,1,.32,1c-7.22,10.43-23.57,24.41-40.84,34.36-14.27,8.21-29.22,13.7-40.28,12.23a1,1,0,0,1-.84-.83.6.6,0,0,1,.76-.62c10.67,1.42,25.28-4,39.31-12.07C411.82,281.49,428,267.66,435.16,257.34Z" transform="translate(-6.98 -7.97)"/><path class="cls-3" d="M425.39,269.74s4.67-.93,9.6-6.73c7.21-8.47,6.08-14.75,3-14.68C434.4,248.41,427.3,257.69,425.39,269.74Z" transform="translate(-6.98 -7.97)"/><path class="cls-3" d="M419.68,274.25s3.76,2.93,11.36,2.9c11.13-.06,15.16-5,13.08-7.31C441.73,267.18,430.06,267.84,419.68,274.25Z" transform="translate(-6.98 -7.97)"/><path class="cls-3" d="M419.68,274.25s-2.87-3.81-2.7-11.42c.26-11.12,5.27-15.06,7.54-12.94C427.13,252.32,426.27,264,419.68,274.25Z" transform="translate(-6.98 -7.97)"/><path class="cls-3" d="M405.61,285.13s3.58,3.14,11.18,3.54c11.11.57,15.41-4.14,13.47-6.56C428,279.33,416.34,279.32,405.61,285.13Z" transform="translate(-6.98 -7.97)"/><path class="cls-3" d="M405.61,285.13s-2.65-4-2.05-11.55c.88-11.09,6.12-14.74,8.26-12.5C414.29,263.66,412.77,275.25,405.61,285.13Z" transform="translate(-6.98 -7.97)"/><path class="cls-3" d="M390.46,294.77s3.26,3.48,10.79,4.61c11,1.65,15.74-2.62,14-5.22C413.34,291.17,401.71,290,390.46,294.77Z" transform="translate(-6.98 -7.97)"/><path class="cls-3" d="M390.46,294.77s-2.25-4.21-.91-11.69c2-11,7.52-14.08,9.44-11.64C401.19,274.25,398.55,285.63,390.46,294.77Z" transform="translate(-6.98 -7.97)"/><path class="cls-3" d="M376.22,300.84s2.69,3.93,9.95,6.19c10.63,3.31,16-.2,14.68-3C399.37,300.76,388.05,297.86,376.22,300.84Z" transform="translate(-6.98 -7.97)"/><path class="cls-3" d="M376.22,300.84s-1.59-4.5.87-11.7c3.6-10.53,9.57-12.77,11.09-10.06C389.94,282.18,385.6,293,376.22,300.84Z" transform="translate(-6.98 -7.97)"/><path class="cls-3" d="M361.18,304.39s2.45,4.1,9.55,6.8c10.41,4,15.94.8,14.84-2.1C384.29,305.75,373.17,302.16,361.18,304.39Z" transform="translate(-6.98 -7.97)"/><path class="cls-3" d="M361.18,304.39s-1.3-4.58,1.6-11.61c4.24-10.29,10.34-12.15,11.69-9.36C376,286.63,371,297.19,361.18,304.39Z" transform="translate(-6.98 -7.97)"/><path class="cls-2" d="M424.37,345.78,284.6,327.24l31.78-10.14s-8.81-18.4.11-23.31,20.39,3.42,20.39,3.42c3.56-15.8,15.73-26.85,21.57-8.75,0,0,6.08-10.19,18.48-8.9s18.05,11,13.81,20.49-6,10.68-6,10.68c19.23-7.87,33-9.55,17.39,15.95,0,0,12.13-4.13,12,2.85s-5.26,8.45-5.26,8.45Z" transform="translate(-6.98 -7.97)"/><path class="cls-3" d="M394.88,334.32l-142.83-4.44,32-17.14s-9.54-22.05-.61-29.48,20.85,1.56,20.85,1.56,3.53-23,10.94-24.13S328.6,281,328.6,281s3.27-23.92,15.93-24,18.72,11.46,14.7,24-5.82,14.32-5.82,14.32c19.33-12.57,33.27-16.56,18.21,17.79,0,0,12.21-6.87,12.32,2s-5.08,11.4-5.08,11.4Z" transform="translate(-6.98 -7.97)"/><path class="cls-4" d="M39.48,336.31C6,344.87-19.66,360.63,82.28,360.63c5.78,0,8.45,1.49,1.87,5.51C46.44,389.2,206.06,389.21,219,389.42c177.61,2.87,134-31.71,136.62-31.66,19.48.41,124.41-3.51,47-19.34C340.34,325.68,95.11,322.11,39.48,336.31Z" transform="translate(-6.98 -7.97)"/><path class="cls-5" d="M369.63,333.91c-72.68-7.14-211.18-9.23-287.55-3.31-9.36,13.79-1.77,26.07,52,31.68,63.16,6.61,128.91.87,132.93.87s42.78,10.62,77.23-8.62C357.6,347.06,365.26,339.89,369.63,333.91Z" transform="translate(-6.98 -7.97)"/><path class="cls-6" d="M334.76,277.88C344.1,257.25,351,203,320.65,172.74c.12-.15,6.35-13.6,6.66-14.42a.44.44,0,0,0,0-.32c.64-.69,7-5.85,7.64-6.54a24.13,24.13,0,0,0,4.49-6.53,1.06,1.06,0,0,0-.64-1.36,3.17,3.17,0,0,1-.82-.52,13.36,13.36,0,0,0,6-1.91,1.12,1.12,0,0,0-.1-2,13.09,13.09,0,0,1-5.22-3.71,33.58,33.58,0,0,0,11.14-2.16,1.26,1.26,0,0,0,.17-2.16c-7.75-4.2-12.91-11.67-18-18.67l4-.68c.42-.08.28-.67-.13-.64-1.5.12-3,.27-4.5.44-.17-.23-.34-.47-.52-.7-2.88-3.9-6-7.6-9.09-11.35,2.59-1.06,5.19-2.1,7.79-3.14.34-.14.15-.72-.2-.61Q325.13,97,321,98.55c-2.76-3.44-5.28-7-7.93-10.55.38-4-1-8.42-1.71-12.2-1-5.34-1.9-10.71-2.7-16.09-.73-4.85-1.09-10.18-3-14.71-.92-2.19-2.94-3.9-5.42-3-2.72,1-4.72,3.73-6.47,5.91-2.56,3.18-5,6.42-7.3,9.79A141.12,141.12,0,0,1,278,69.44a35.09,35.09,0,0,1-4.7,4.82c-2.36-.08-4.79.19-7.13.22-2.8,0-5.58,0-8.38.09-11.79.28-37.62,8.84-43.58,17.31-4.41-.73-31.14-18.07-33.69-12-1.53,3.65.5,7.8,2,11,1.71,3.55,4.44,10.77,7.43,12.48.62-.44-.06-1.13.74-1.66-.72-2.91-3.49-7.12-4.77-9.64-1.11-2.2-3-5.24-3.39-8.11h0c5.72,3,10,16,13.17,21.25,8.39-4.58-8.78-20.27-13.24-22.29,0-.75.12-2.11,5.41.54,9,4.52,26.36,14.28,34.58,11.84h0a.5.5,0,0,0-.19-1c-2.09.18-3.48-1.69-5.47-1.94,10.72-7.84,24.84-14.5,38.19-15.16-3.05,7.28-3.35,15.76-2,23.34a45.14,45.14,0,0,0,10.68,22.14,41.26,41.26,0,0,0,6,5.56,16.34,16.34,0,0,0-1.2,1.4l0,0a12.47,12.47,0,0,1,1.3-1.32c.87.66,1.76,1.29,2.68,1.89a11.69,11.69,0,0,0-1.36,1.1l0,0a11.39,11.39,0,0,1,1.48-1.05,43.11,43.11,0,0,0,5.83,3.15l-1.54.45a19.73,19.73,0,0,0-5.94,2.47l0,0c2.21-1.33,4.79-1.65,7.24-2.28l1.13-.28a44.78,44.78,0,0,0,5.65,1.93c10,2.65,21.06,2,31.1-.34a66.5,66.5,0,0,0,18.51-7.43h2.81a.32.32,0,0,0,.05-.64l-1.57-.14c1-.64,2.06-1.32,3.06-2a39.54,39.54,0,0,0,7.4,6.51,32.24,32.24,0,0,1-10.21,1.31c-.92,0-1.67,1.15-.95,1.86,1.88,1.87,3.59,3.88,5.82,5.22a23.61,23.61,0,0,1-5.82,1,1.1,1.1,0,0,0-.42,2,18.18,18.18,0,0,1,2.32,1.86,28.82,28.82,0,0,1-4.45,5.75c-.6.64-1.25,1.27-1.88,1.9-4.33,2.94-8.28,6.54-12.52,9.61A146.72,146.72,0,0,1,302.79,172q-4.16,2.28-8.5,4.19c1-.95,2-2,3-3,2.86-3.15,5.21-6.77,7.86-10.1.17-.21-.17-.52-.36-.31-2.73,2.92-5.2,6.05-7.94,9a49.84,49.84,0,0,1-4,3.92c-5.27,4.49-17.06,7.14-23.72,8.58-28.82,6.25-25.42-4.86-36.7-3.74-.46.05-.45.72-.07.86,30.86,11.39-23.44.59-29.93-2-1.87-.74.67-.84,2.13.07.63.4-.42-.93.34,1.12.05.14,4,3.72,4.86,4.61,11.88,12.64,32.34,17.54,49.41,17.3a19.81,19.81,0,0,0,4.85-.42,17.43,17.43,0,0,0-2.23,9,15.49,15.49,0,0,0,1.15,5.47A10.48,10.48,0,0,0,263,218a.81.81,0,0,0,1,.66,16.38,16.38,0,0,0,9.88,7.27,21.43,21.43,0,0,0,17.52-3.33c5.6-4,7.56-10.67,6.24-17.12-.92-4.44-4.22-7.89-8.08-10,11.12-3.76,19.81-10.74,27.79-19.28,1.23-1.32,2.58.66,4.15,1.81,12.06,8.87,29.49,60.08,9.93,100.93l3.4-1.05ZM163.7,156.9c5-1.58,41.91-9.31,46.94-10.44a159.64,159.64,0,0,1,17.35-3c2.69-.3,5.37-.48,8.06-.66s5-.43,7.51.21v0c-2.85-.56-6,.15-8.85.45-2.67.27-5.34.59-8,1-5.56.83-11.1,1.87-16.57,3.21-15.49,3.79-30.29,8.18-46.43,9.19Zm3.43-19.56c20.52-3.59,41.44-2.28,59.65-1.19,2.94.17,5.85.52,8.78.79a20.11,20.11,0,0,1,6.33,1.34l0,.05c-2.58-1-5.5-.79-8.23-1s-5.64-.34-8.47-.41c-15.31-.37-45.58-1-58,.4Zm3.25-14.51c13.53,1.17,28,1.81,41.3,4q3.34.54,6.68,1.2a14.18,14.18,0,0,1,2.75-4.88,14.64,14.64,0,0,1,14.54-4.55c2.06.5,5.14,1.39,6.44,3.19.22.31-.05.83-.46.67-2.23-.89-3.81-2.13-6.35-2.2a19.33,19.33,0,0,0-6.61,1,11.75,11.75,0,0,0-5.66,3.74,11.52,11.52,0,0,0-1.8,3.11c-.06.17-.12.35-.17.52,2.75.59,5.48,1.24,8.19,2,2.88.78,5.7,1.72,8.55,2.58a21.63,21.63,0,0,1,6.1,2.63l0,0c-2.44-1.46-5.4-1.91-8.12-2.67s-5.53-1.5-8.32-2.15c-2.21-.52-4.43-1-6.66-1.45a7.31,7.31,0,0,1-.78,1.92,1,1,0,0,1-1.71-.33,4.61,4.61,0,0,1-.13-2.1q-4-.77-8.08-1.33c-2.06-.29-37.62-4.64-39.68-4.86Zm124.4,200.63c-1,.3-1.81.59-2.57.85,0-1.69.18-3.43.21-5.08.05-2.6.12-5.2.14-7.81,0-5.31,0-10.63.24-15.95h0a114,114,0,0,1,1.66-16.27A63.49,63.49,0,0,1,296.7,270c-2.69,2.71-6,4.6-10,4.58a19.29,19.29,0,0,1-7.73-1.78,50.13,50.13,0,0,1,2.67,4.69,71.31,71.31,0,0,1,5.7,16.52A119.6,119.6,0,0,1,289.84,312c.29,4.26,1.64,13,.77,15-.6-.38-1.88.83-2.3-.48-1-3-.76-10.07-1-13.94A124.56,124.56,0,0,0,285,295.6a69.24,69.24,0,0,0-5.42-16.5,42.78,42.78,0,0,0-4.46-7.37c-.58-.75-1.19-1.45-1.81-2.15-3.55-2.47-7.32-5.47-9.48-9.25-.37-.66.5-1.3,1.08-.93,3.54,2.24,6.38,5.49,9.83,7.9s7.37,4.68,11.65,4.72c4.87.05,8.7-3.09,11.23-7.09,1.38-2.17,2.42-4.48,3.62-6.74a41.77,41.77,0,0,1,3.91-5.77.44.44,0,0,1,.72.49c-1.6,2.59-2.5,5.78-3.76,8.56a43.08,43.08,0,0,1-2.38,4.63c-.92,4.93-2.39,9.76-3.11,14.74a141.64,141.64,0,0,0-1.31,15.52c-.17,5.31-.16,10.62-.21,15.94,0,2.59,0,5.2-.18,7.79-.07,1.1-.09,2.24-.18,3.37ZM262.24,187.81h0c23.52-3.15,39.44-9.33,58.1-24,.93-.73,1.86-1.47,2.77-2.24a.92.92,0,0,0,.39-.16c.28-.19.56-.39.83-.6l-1.63,2.27c-.53.53-1,1.11-1.56,1.64-1.27,1.28-2.59,2.51-3.93,3.73-3.46,3.15-8.63,5.76-12.86,7.75-1.7.91-3.42,1.72-5.07,2.59-12.26,6.54,16.84-5.59,20.7-10.48-1.59,2.76-1.42,3.24-3.82,5.82-7.2,7.78-17.1,15.87-27.34,19.07-.88.28-1.8.45-2.68.74a18.12,18.12,0,0,0-19.69,4.68,13.84,13.84,0,0,0-1.12,1.31l-.12,0a37.84,37.84,0,0,0-5.92.19c-14.67.36-35.31-5.26-46.82-14.64a48.27,48.27,0,0,0,13.3,3.63c.4.11.5-.46.11-.61-4.88-1.06-14.46-3.44-17.26-6.79l-.11-.13c5,2,16.82,3.3,22.43,4.42,11.63,2.3,19.18,3.43,31.3,1.81ZM279,206h0c5-2.3,12-1.79,16.37,1.35h0A14.22,14.22,0,0,1,287.81,222c-1.72-2.72-2.22-6-3.41-8.95-1-2.37-2.68-3.68-5.16-2.34-5.94,3.21,1.24,9.69,3.83,13.09a17,17,0,0,1-14.37-3,12.16,12.16,0,0,1-3.73-5c1.26-5.86,6.36-9.81,11.82-12.25a23.66,23.66,0,0,1,10-2.12c2.86,0,5.08,1.15,7.56,2.29a10.93,10.93,0,0,1,.57,1.41,15.77,15.77,0,0,0-7.1-1.59c-2.85-.11-6.7.3-8.88,2.42a.1.1,0,0,0,.11.16Zm5.76,17.25h0c-1.15-3.26-8.3-7.8-5.24-10.61,2.55-2.35,3.54,1.8,4.1,3.62.64,2.07,1.14,4.72,2.56,6.46-.47.2-.94.37-1.42.53Zm2.6-24.57h0a25.6,25.6,0,0,0-11.69,2.51c-4.34,1.92-9.36,5.64-11.62,10.29-.66-14,12.78-19.78,23.92-14.14a15.93,15.93,0,0,1,2.84,1.85,17.66,17.66,0,0,0-3.45-.51Zm50-75.13h0a62.07,62.07,0,0,1-5.74,3.47c-40.61-1.91-13-3.53-46.49,4.6-1.11.27-2.22.57-3.32.88a37.72,37.72,0,0,1-4.76-2.05c-.76-.38-1.5-.8-2.23-1.24.88-.38,1.77-.72,2.65-1.1,2.65-1.13,5.28-2.32,8-3.4,5.48-2.21,11.09-4.13,16.75-5.81a247.55,247.55,0,0,1,27.2-6.07c2.56,3.59,5.12,7.31,8,10.72Zm-7.78,4.52c-13.72,6.74-31.95,9.53-46.47,4.88l2.91-.68a136.4,136.4,0,0,1,13.69-2.51c12.56-1.52,28.94-1.68,29.87-1.69Zm-.91-16.23h0a173.52,173.52,0,0,0-27.4,6.2A169.67,169.67,0,0,0,285.13,124c-2.66,1.13-5.25,2.38-7.84,3.65-1,.46-1.88.9-2.78,1.38-1-.63-2-1.3-3-2,1.09-.77,2.23-1.48,3.31-2.25q3.81-2.7,7.7-5.26c4.89-3.19,9.92-6.14,15.06-8.89a242,242,0,0,1,22.12-10.27c3,3.83,6.15,7.59,9,11.55Zm-22.3-50.1h0c.69,4.87,1.46,9.73,2.4,14.56.44,2.18.86,4.37,1.22,6.57.3,1.84.42,3.72.84,5.53-3.2-2.48-6.07-5.5-5.11-9.76a.93.93,0,0,0-1.48-1,17.57,17.57,0,0,0-3.66,3.7,20,20,0,0,1,1.26-8c.38-1-.79-1.59-1.56-1.06a18.56,18.56,0,0,0-5.93,6.49,65.17,65.17,0,0,1,.84-15.86c.88-5.7,2.48-14.3,7.91-17.68a12,12,0,0,1,.85,2.19c1.44,4.53,1.75,9.64,2.42,14.35ZM259,77.12h0c2.56-.05,5.13,0,7.69-.07,1,0,2.09,0,3.15,0a21.19,21.19,0,0,0-2.42,2.5.35.35,0,0,0,.45.52,56.18,56.18,0,0,0,5.06-3.21,14.84,14.84,0,0,0,1.9-.37,1.11,1.11,0,0,0,.69-1.66c.74-.63,1.45-1.28,2.14-2a78.53,78.53,0,0,0,7.93-9.9c2.37-3.37,4.59-6.82,7.17-10a59.43,59.43,0,0,1,6.3-7.41,4.22,4.22,0,0,1,2.77-1.41,1.17,1.17,0,0,1,.64.24c-6.1,2.49-7.9,11.4-8.94,17C292.21,68.3,291.55,76.11,293,83a1,1,0,0,0,2-.14,13.34,13.34,0,0,1,4.17-7.11,20,20,0,0,0-.07,8.71,1,1,0,0,0,1.88.12,13.19,13.19,0,0,1,2.86-4.07,11.23,11.23,0,0,0,2.63,6.27A20.74,20.74,0,0,0,314,92.91c1.52,2.25,3.26,4.37,4.9,6.43A190.27,190.27,0,0,0,296.47,110q-7.73,4.24-15,9.23c-2.56,1.74-5,3.6-7.5,5.48-.92.7-1.84,1.39-2.72,2.12a45.48,45.48,0,0,1-17.38-39.67,55.66,55.66,0,0,1,2-9.9C256.88,77.17,257.92,77.14,259,77.12Z" transform="translate(-6.98 -7.97)"/><path class="cls-6" d="M189.45,98.59c.58,2.38,5.1,7,5,9.44-.3,8-3.31,16.33-5.52,25a64.84,64.84,0,0,1-14.23,27l17,.49-8.24,6.59,11.8,1.89-3.87,3.51c3.92,2.51,22.91,12.08,51.88,13.69l-4.71.58c-35.21-1.95-49.65-13.2-49.69-13.23l-1.07-.82,2.46-2.23L178,168.55l7.43-5.94-15.82-.46,1.76-1.84a62.23,62.23,0,0,0,15.33-27.79c2.08-8.14,3.41-16,5.07-23.75.53-2.46-4.35-5.84-5-9Z" transform="translate(-6.98 -7.97)"/><path class="cls-7" d="M269.05,184.25c6.66-1.44,18.45-4.09,23.72-8.58a49.84,49.84,0,0,0,4-3.92c2.74-2.92,5.21-6.05,7.94-9,.19-.21.53.1.36.31-2.65,3.33-5,6.95-7.86,10.1-.94,1-1.93,2.05-3,3q4.33-1.92,8.5-4.19a146.72,146.72,0,0,0,15.42-9.77c4.24-3.07,8.19-6.67,12.52-9.61.63-.63,1.28-1.26,1.88-1.9a28.82,28.82,0,0,0,4.45-5.75,18.18,18.18,0,0,0-2.32-1.86,1.1,1.1,0,0,1,.42-2,23.61,23.61,0,0,0,5.82-1c-2.23-1.34-3.94-3.35-5.82-5.22-.72-.71,0-1.9.95-1.86a32.24,32.24,0,0,0,10.21-1.31,39.54,39.54,0,0,1-7.4-6.51c-1,.7-2,1.38-3.06,2l1.57.14a.32.32,0,0,1-.05.64h-2.81a66.5,66.5,0,0,1-18.51,7.43c-10,2.36-21.14,3-31.1.34a44.78,44.78,0,0,1-5.65-1.93l-1.13.28c-2.45.63-5,.95-7.24,2.28l0,0a19.73,19.73,0,0,1,5.94-2.47l1.54-.45a43.11,43.11,0,0,1-5.83-3.15,11.39,11.39,0,0,0-1.48,1.05l0,0a11.69,11.69,0,0,1,1.36-1.1c-.92-.6-1.81-1.23-2.68-1.89a12.47,12.47,0,0,0-1.3,1.32l0,0a16.34,16.34,0,0,1,1.2-1.4,41.26,41.26,0,0,1-6-5.56A45.14,45.14,0,0,1,253,100.59c-1.31-7.58-1-16.06,2-23.34-13.35.66-27.47,7.32-38.19,15.16,2,.25,3.38,2.12,5.47,1.94a.5.5,0,0,1,.19,1c-8.22,2.44-25.54-7.32-34.58-11.84-5.29-2.65-5.42-1.29-5.41-.54,6.36,2.88,17.28,18.85,13.5,20.92-3.17-5.29-7.71-16.93-13.43-19.88.41,2.87,2.28,5.91,3.39,8.11.84,1.66,8.6,16.34,8.57,16.45-1.46,5.43-3.31,10.45-4,15.85,7.15.59,14.29,1.3,21.13,2.42q3.34.54,6.68,1.2a14.18,14.18,0,0,1,2.75-4.88,14.64,14.64,0,0,1,14.54-4.55c2.06.5,5.14,1.39,6.44,3.19.22.31-.05.83-.46.67-2.23-.89-3.81-2.13-6.35-2.2a19.33,19.33,0,0,0-6.61,1,11.75,11.75,0,0,0-5.66,3.74,11.52,11.52,0,0,0-1.8,3.11c-.06.17-.12.35-.17.52,2.75.59,5.48,1.24,8.19,2,2.88.78,5.7,1.72,8.55,2.58a21.63,21.63,0,0,1,6.1,2.63l0,0c-2.44-1.46-5.4-1.91-8.12-2.67s-5.53-1.5-8.32-2.15c-2.21-.52-4.43-1-6.66-1.45a7.31,7.31,0,0,1-.78,1.92,1,1,0,0,1-1.71-.33,4.61,4.61,0,0,1-.13-2.1q-4-.77-8.08-1.33c-1-.15-10.29-1.29-19.62-2.43a70.76,70.76,0,0,1-1.51,7.78c-.19.71-.38,1.42-.58,2.13,13.39-.54,26.49.27,38.43,1,2.94.17,5.85.52,8.78.79a20.11,20.11,0,0,1,6.33,1.34l0,.05c-2.58-1-5.5-.79-8.23-1s-5.64-.34-8.47-.41c-9.32-.22-24.2-.56-37.22-.46a65.12,65.12,0,0,1-7.88,16.58c12.36-2.72,27.48-5.9,30.57-6.6a159.64,159.64,0,0,1,17.35-3c2.69-.3,5.37-.48,8.06-.66s5-.43,7.51.21v0c-2.85-.56-6,.15-8.85.45-2.67.27-5.34.59-8,1-5.56.83-11.1,1.87-16.57,3.21-10.59,2.59-20.86,5.46-31.45,7.34q-1.85,2.56-4,5l17,.49-8.24,6.59,11.8,1.89-3.87,3.51c3.85,2.46,22.22,11.74,50.31,13.59.37-.63-2.2-2.08-9.38-4.73-.38-.14-.39-.81.07-.86,11.28-1.12,7.88,10,36.7,3.74Zm-11.44-33.93a10.69,10.69,0,0,1-7.33,3c-2.84.13-6.13-.46-8.34-2.32-1.9-1.61-3.35-4.1-2-6.58a.72.72,0,0,1,1.23.08c.75,1.81,1.13,3.62,2.88,4.78a10.42,10.42,0,0,0,6.07,1.63,8.45,8.45,0,0,0,5.77-2.07c2.4-2.47,1.23-5.61.9-8.57-3.9-.37-13.09-2.91-10.81-7.83,2.81-6,18.33-9.31,19.68-2.79.63,3-5.41,8.94-6.86,10l-.16.1a.89.89,0,0,1,.38.51c.62,2.21,1.62,4.45,3.84,5.44A9.2,9.2,0,0,0,274,142.5c2-3.1.84-4.94,1.3-7.05a.74.74,0,0,1,1.29-.44c1.89,2.28.93,6.51-.62,8.83a11.28,11.28,0,0,1-6.66,4.61,10.27,10.27,0,0,1-9.75-2.48,7.45,7.45,0,0,1-1.95,4.35ZM238.18,85.67c-2.23,1-4.91,2.55-7.42,2.48a.53.53,0,0,1-.3-.93c2.31-1.7,5.53-2.71,8.17-3.77a30.32,30.32,0,0,1,4-1.39,18.7,18.7,0,0,1,3.93-.34c.34,0,.36.53,0,.59a26.26,26.26,0,0,0-4.7,1.72c-1.26.51-2.49,1.07-3.73,1.64Zm27.15,71.4a.53.53,0,0,1,.39.83c-2.31,2.82-8.17,2.62-11,1-.52-.29-.15-1,.38-1,2,0,3.92.39,5.9.07a36.16,36.16,0,0,1,4.36-.87Zm-62.86-49.89c.85,1.1.14,3.55-.08,4.81-.35,1.92-.66,4.08-2.11,5.52a.45.45,0,0,1-.75-.36c.34-2.14,1.16-4.17,1.47-6.33.16-1.07,0-2.86.87-3.68A.42.42,0,0,1,202.47,107.18Z" transform="translate(-6.98 -7.97)"/><path class="cls-8" d="M210.31,146.54l.33-.08a159.64,159.64,0,0,1,17.35-3c1.56-.18,3.12-.31,4.68-.43-1.63-2.46-6.32-3.8-11.64-3.07-5.62.76-10,3.56-10.72,6.57Zm22.7-2.85a3.67,3.67,0,0,1,.24.92c.4,3.42-4.44,6.9-10.79,7.76s-11.83-1.21-12.23-4.64v0c5.44-1.32,10.94-2.36,16.47-3.18C228.8,144.19,230.91,143.93,233,143.69Z" transform="translate(-6.98 -7.97)"/><path class="cls-9" d="M269.05,184.25c6.66-1.44,18.45-4.09,23.72-8.58a49.84,49.84,0,0,0,4-3.92c2.74-2.92,5.21-6.05,7.94-9,.19-.21.53.1.36.31-2.65,3.33-5,6.95-7.86,10.1-.94,1-1.93,2.05-3,3q4.33-1.92,8.5-4.19a146.72,146.72,0,0,0,15.42-9.77c4.24-3.07,8.19-6.67,12.52-9.61.63-.63,1.28-1.26,1.88-1.9a28.82,28.82,0,0,0,4.45-5.75,18.18,18.18,0,0,0-2.32-1.86,1.1,1.1,0,0,1,.42-2,23.61,23.61,0,0,0,5.82-1c-2.23-1.34-3.94-3.35-5.82-5.22-.72-.71,0-1.9.95-1.86a32.24,32.24,0,0,0,10.21-1.31,39.54,39.54,0,0,1-7.4-6.51c-1,.7-2,1.38-3.06,2l1.57.14a.32.32,0,0,1-.05.64h-2.81c-1.12.66-2.27,1.29-3.43,1.88l4.35,7.82-9,1.61,4.08,2.52s-13.51,9.19-26.1,18.15-20.57,16.76-61,16.53-49.55-14-49.55-14l8.13-4.13A101.36,101.36,0,0,1,184,154c-1.75.36-3.52.71-5.29,1q-1.85,2.56-4,5l17,.49-8.24,6.59,11.8,1.89-3.87,3.51c3.85,2.46,22.22,11.74,50.31,13.59.37-.63-2.2-2.08-9.38-4.73-.38-.14-.39-.81.07-.86,11.28-1.12,7.88,10,36.7,3.74Zm-88.79-31.49.44.16-.63.14C180.13,153,180.19,152.86,180.26,152.76Z" transform="translate(-6.98 -7.97)"/><path class="cls-6" d="M326.1,275.07c5.29-4.57,7.93-12.08,9.53-18.63a118.83,118.83,0,0,0,2.87-21.71.16.16,0,0,0-.31,0c-2,6.51-2.57,13.26-4.09,19.88a57.63,57.63,0,0,1-3.16,9.82c-1.51,3.55-3.73,6.67-5.57,10C325.12,274.9,325.64,275.46,326.1,275.07Z" transform="translate(-6.98 -7.97)"/><path class="cls-6" d="M239.55,227a8.49,8.49,0,0,0-2.67,5,22.62,22.62,0,0,1-6.67-11.57,1,1,0,0,0-1.72-.57,10.12,10.12,0,0,0-2.54,6.27C224,221.74,223,216.69,224.2,212a.33.33,0,0,0-.62-.21c-2.69,6.3-.74,13.42,2.52,19.07a1,1,0,0,0,1.91-.67c-.15-2.24-.23-4.89.75-7A24.39,24.39,0,0,0,237,234.92a1.09,1.09,0,0,0,1.66-.82,19.68,19.68,0,0,1,2.15-6.21C241.2,227.1,240.15,226.53,239.55,227Z" transform="translate(-6.98 -7.97)"/><path class="cls-6" d="M268.91,117.73c1-5,6.15-8.84,10.94-9.89a10,10,0,0,1,5.88.8c2.17.88,3.9,2.58,6.26,3a.9.9,0,0,0,.86-1.26c-1.29-2.4-4.2-3.69-6.65-4.63a12.55,12.55,0,0,0-7.38-.44c-5.34,1.28-11,6.7-11.34,12.34C267.43,118.58,268.73,118.61,268.91,117.73Z" transform="translate(-6.98 -7.97)"/><path class="cls-6" d="M255.85,148.81a8.45,8.45,0,0,1-5.77,2.07,10.42,10.42,0,0,1-6.07-1.63c-1.75-1.16-2.13-3-2.88-4.78a.72.72,0,0,0-1.23-.08c-1.31,2.48.14,5,2,6.58,2.21,1.86,5.5,2.45,8.34,2.32a10.69,10.69,0,0,0,7.33-3,7.45,7.45,0,0,0,1.95-4.35,10.27,10.27,0,0,0,9.75,2.48,11.28,11.28,0,0,0,6.66-4.61c1.55-2.32,2.51-6.55.62-8.83a.74.74,0,0,0-1.29.44,26.39,26.39,0,0,0-.1,3.67,7.52,7.52,0,0,1-1.2,3.38,9.2,9.2,0,0,1-11.18,3.18c-2.22-1-3.22-3.23-3.84-5.44a.89.89,0,0,0-.38-.51l.16-.1c3.44-2.55,8.1-6.82,7.56-9.88-1.08-6.19-17.49-4.49-20.84,2.72-2.28,4.92,7.37,7.4,11.27,7.77C257.08,143.2,258.25,146.34,255.85,148.81Z" transform="translate(-6.98 -7.97)"/><path class="cls-6" d="M265.33,157.08a34.28,34.28,0,0,0-4.36.86c-2,.32-3.93-.06-5.9-.07-.53,0-.9.75-.38,1,2.86,1.61,8.72,1.81,11-1A.52.52,0,0,0,265.33,157.08Z" transform="translate(-6.98 -7.97)"/><path class="cls-6" d="M313.94,215.3c-1,4-1.19,8.09-2.31,12.07a31.25,31.25,0,0,1-4.81,10c-.61-3-1.74-6.47-4.48-7.49a.73.73,0,0,0-.89,1c.71,1.43,1.9,2.51,2.59,4a19,19,0,0,1,1.3,4.88.94.94,0,0,0,1.69.33,32,32,0,0,0,6.09-11.55,46.91,46.91,0,0,0,2-9.18c.74,1.35,1.63,2.65,2.33,4,1,2,1.9,4,2.8,6,.41.93,1.6.47,1.77-.36,1.15-5.53,2.78-11,3.15-16.65.34-5.26-.92-11.41-4.6-15.3a.59.59,0,0,0-1,.65c1.24,2.54,2.59,4.82,3.26,7.62a25.72,25.72,0,0,1,.39,8.12,87.58,87.58,0,0,1-2.44,12.56c-.53-1.19-1.08-2.36-1.66-3.52a18.94,18.94,0,0,0-3.36-5.36.89.89,0,0,0-.55-.23c0-.54,0-1.08-.08-1.6A.62.62,0,0,0,313.94,215.3Z" transform="translate(-6.98 -7.97)"/><path class="cls-6" d="M230.76,88.15c2.51.07,5.19-1.45,7.42-2.48,1.24-.57,2.47-1.13,3.73-1.64a26.26,26.26,0,0,1,4.7-1.72c.33-.06.31-.61,0-.59a18.7,18.7,0,0,0-3.93.34,30.32,30.32,0,0,0-4,1.39c-2.64,1.06-5.86,2.08-8.17,3.77A.53.53,0,0,0,230.76,88.15Z" transform="translate(-6.98 -7.97)"/><path class="cls-6" d="M201.87,107.14c-.85.82-.71,2.61-.87,3.68-.31,2.16-1.13,4.19-1.47,6.33a.45.45,0,0,0,.75.36c1.45-1.44,1.76-3.6,2.11-5.52.22-1.26.93-3.71.08-4.81A.42.42,0,0,0,201.87,107.14Z" transform="translate(-6.98 -7.97)"/><path class="cls-6" d="M308.6,282.67a.41.41,0,0,0-.81-.05c-.9,4.42,1.2,8.11,2.51,12.13-2.68-.08-4.56-2.36-6-4.42a.79.79,0,0,0-1.38.47c.07,2.88,1.06,6,3.4,7.81a.59.59,0,0,0,.85-.73c-.74-1.44-1.7-2.67-2.26-4.08a7.7,7.7,0,0,0,6.47,2.3.72.72,0,0,0,.56-.84C310.62,291,308.53,287.31,308.6,282.67Z" transform="translate(-6.98 -7.97)"/><path class="cls-6" d="M219.15,192.21c-5.76,8.86-8.14,20-6.09,34.36s12.18,33.92,22.4,51.32c15.13,25.77,23.41,37.56,26.94,42.15.66.85,1.17,1.47,1.53,1.89a.17.17,0,0,1,0,.15,1.21,1.21,0,0,1,.83,1.33h0a1.4,1.4,0,0,1-.37.92h0a1.27,1.27,0,0,1-1.17.44.19.19,0,0,1-.16,0h0c-.13,0,.08.11-.25.23-.54.19-1.27.48-2.11.87-4.07,1.85-10.85,5.82-10.66,10.91.21,5.79,15.29,5.32,24.55,5,1.81-.06,3.42-.11,4.5-.11,3.53,0,6.14-1.32,7.68-4.17,1.67-3.11,2.21-8,1.43-14.93l2.82-.37c.84,7.52.19,13-1.76,16.6-2.1,3.9-5.58,5.71-10.23,5.71-1.35,0-2.79.05-4.41.1-10.31.32-27.11.85-27.42-7.7-.24-6.73,7.64-11.5,12.37-13.65l1.29-.56-.76-1c-3.58-4.65-11.95-16.57-27.13-42.42-10.43-17.75-22.46-39.23-24.56-54s2.37-26.87,8.19-36Z" transform="translate(-6.98 -7.97)"/><path class="cls-6" d="M339.58,264.3c-8,28.49-18.2,54.84-19.87,61,4.8,1.38,20,6.67,10,16a9.93,9.93,0,0,1-3.92,1.86c-4.57,1.3-12.35,2-19.35,1.94-7.22,0-13.75-.95-15.51-2.84a2.68,2.68,0,0,1-.63-1.12c-1.89-7.11,2.89-23.81,2.9-23.86l2.73.72c0,.05-4.54,15.9-2.9,22.31,1.22,1.29,7,1.91,13.48,2,6.76,0,14.22-.61,18.56-1.84a7.48,7.48,0,0,0,2.73-1.19c7.87-7.32-10.13-11.54-10.18-11.55l-1.38-.33.37-1.39a594.47,594.47,0,0,1,20.6-61.79Z" transform="translate(-6.98 -7.97)"/><path class="cls-6" d="M217.83,232.79c-1.57,12.47-4.88,24.57-8,35.77-7,25.61-12.72,46.42,7.58,54.74a83.07,83.07,0,0,0,13.54,4c5.38,1.17,15,2.08,21.26,2.73l-4,2.82a165.84,165.84,0,0,1-17.94-2.77,86,86,0,0,1-14-4.16c-22.58-9.25-16.58-31.14-9.2-58.05,3-11.13,6.34-23.14,7.87-35.38l2.82.29Zm100,93.12c4.57-1.56,11.92-4.73,15.05-6.88a18.84,18.84,0,0,0,6.29-6.61c11.74-22.53-.79-54.59-.83-54.68l2.66-1.07c0,.1,13,33.32.67,57a21.7,21.7,0,0,1-7.22,7.67,51.24,51.24,0,0,1-12.35,5.92Z" transform="translate(-6.98 -7.97)"/><path class="cls-10" d="M276.37,134.64a17.63,17.63,0,0,0-5.43,1.85l0,0a17.84,17.84,0,0,1,5.23-2.26,12.11,12.11,0,0,0-2.45-3.11c-.38-.22-.75-.46-1.13-.7a11.39,11.39,0,0,0-1.48,1.05l0,0a11.69,11.69,0,0,1,1.36-1.1c-.88-.58-1.74-1.18-2.58-1.82l-.12-.05a11.23,11.23,0,0,0-1.28,1.3l0,0a15.13,15.13,0,0,1,1.15-1.35,16.39,16.39,0,0,0-6.26-1.73,4,4,0,0,1,2.62,2.94c.63,3-5.7,9-7.15,10.08l-.16.1a.89.89,0,0,1,.38.51c.62,2.21,1.62,4.45,3.84,5.44A9.2,9.2,0,0,0,274,142.5c2-3.1.84-4.94,1.3-7.05a.77.77,0,0,1,1.18-.56c0-.08-.07-.17-.11-.25Zm-34.9-.2a15.72,15.72,0,0,1,2.41,1.32l0,0a14,14,0,0,0-2.55-1.16,11.39,11.39,0,0,0-1.65,2.9,15.74,15.74,0,0,1,2.23.74l0,.05a12.7,12.7,0,0,0-2.28-.58,10.49,10.49,0,0,0-.51,4.88,15.82,15.82,0,0,1,4.48.39v0a15.54,15.54,0,0,0-4.42-.1,13.6,13.6,0,0,0,.33,1.48l.18.54a3.89,3.89,0,0,1,.26-.6.72.72,0,0,1,1.23.08c.75,1.81,1.13,3.62,2.88,4.78a10.42,10.42,0,0,0,6.07,1.63,8.45,8.45,0,0,0,5.77-2.07c2.4-2.47,1.23-5.61.9-8.57-3.9-.37-13.52-3.05-11.24-8A7.22,7.22,0,0,1,247.3,130,13.31,13.31,0,0,0,241.47,134.44Z" transform="translate(-6.98 -7.97)"/><path class="cls-11" d="M267.48,117.64c.34-5.64,6-11.06,11.34-12.34a12.55,12.55,0,0,1,7.38.44c2.45.94,5.36,2.23,6.65,4.63a.9.9,0,0,1-.86,1.26c-2.36-.41-4.09-2.11-6.26-3a10,10,0,0,0-5.88-.8c-4.79,1-9.92,4.84-10.94,9.89-.18.88-1.48.85-1.43-.09Zm3.76,9.14c.88-.73,1.8-1.42,2.72-2.12,2.47-1.88,4.94-3.74,7.5-5.48q7.28-5,15-9.23a190.27,190.27,0,0,1,22.46-10.61c-1.64-2.06-3.38-4.18-4.9-6.43a20.74,20.74,0,0,1-7.56-6.12,11.23,11.23,0,0,1-2.63-6.27A13.19,13.19,0,0,0,301,84.59a1,1,0,0,1-1.88-.12,20,20,0,0,1,.07-8.71A13.34,13.34,0,0,0,295,82.87a1,1,0,0,1-2,.14c-1.45-6.9-.79-14.71.48-21.64,1-5.65,2.84-14.56,8.94-17a1.17,1.17,0,0,0-.64-.24A4.22,4.22,0,0,0,299,45.49a59.43,59.43,0,0,0-6.3,7.41c-2.58,3.22-4.8,6.67-7.17,10a78.53,78.53,0,0,1-7.93,9.9c-.69.7-1.4,1.35-2.14,2a1.11,1.11,0,0,1-.69,1.66,14.84,14.84,0,0,1-1.9.37,56.18,56.18,0,0,1-5.06,3.21.35.35,0,0,1-.45-.52,21.19,21.19,0,0,1,2.42-2.5c-1.06,0-2.12,0-3.15,0-2.56,0-5.13,0-7.69.07-1,0-2.07,0-3.1.09a55.66,55.66,0,0,0-2,9.9A45.48,45.48,0,0,0,271.24,126.78Z" transform="translate(-6.98 -7.97)"/><path class="cls-8" d="M295.26,62.91a65.17,65.17,0,0,0-.84,15.86,18.56,18.56,0,0,1,5.93-6.49c.77-.53,1.94,0,1.56,1.06a20,20,0,0,0-1.26,8,17.57,17.57,0,0,1,3.66-3.7.93.93,0,0,1,1.48,1c-1,4.26,1.91,7.28,5.11,9.76-.42-1.81-.54-3.69-.84-5.53-.36-2.2-.78-4.39-1.22-6.57-.94-4.83-1.71-9.69-2.4-14.56-.67-4.71-1-9.82-2.42-14.35a12,12,0,0,0-.85-2.19C297.74,48.61,296.14,57.21,295.26,62.91Z" transform="translate(-6.98 -7.97)"/><path class="cls-11" d="M319.71,100.32a242,242,0,0,0-22.12,10.27c-5.14,2.75-10.17,5.7-15.06,8.89q-3.9,2.55-7.7,5.26c-1.08.77-2.22,1.48-3.31,2.25,1,.72,2,1.39,3,2,.9-.48,1.83-.92,2.78-1.38,2.59-1.27,5.18-2.52,7.84-3.65a169.67,169.67,0,0,1,16.21-5.91,173.52,173.52,0,0,1,27.4-6.2C325.86,107.91,322.75,104.15,319.71,100.32Z" transform="translate(-6.98 -7.97)"/><path class="cls-11" d="M329.45,112.86a247.55,247.55,0,0,0-27.2,6.07c-5.66,1.68-11.27,3.6-16.75,5.81-2.68,1.08-5.31,2.27-8,3.4-.88.38-1.77.72-2.65,1.1.73.44,1.47.86,2.23,1.24a37.72,37.72,0,0,0,4.76,2.05c1.1-.31,2.21-.61,3.32-.88,18.29-4.44,27.09-5.51,46.49-4.6a62.07,62.07,0,0,0,5.74-3.47C334.57,120.17,332,116.45,329.45,112.86Z" transform="translate(-6.98 -7.97)"/><path class="cls-11" d="M329.65,128.1c-16.21.09-27.56.69-43.56,4.2l-2.91.68a56.39,56.39,0,0,0,23.94,1.77A71,71,0,0,0,329.65,128.1Z" transform="translate(-6.98 -7.97)"/><path class="cls-12" d="M262.24,187.81c-11.44,1.53-18.82.61-29.4-1.44a134.72,134.72,0,0,1-23.7-4.11c3.32,3.06,12.13,5.24,16.74,6.24.39.15.29.72-.11.61a48.27,48.27,0,0,1-13.3-3.63c11.51,9.38,32.15,15,46.82,14.64a37.84,37.84,0,0,1,5.92-.19l.12,0a13.84,13.84,0,0,1,1.12-1.31A18.12,18.12,0,0,1,286.14,194c.88-.29,1.8-.46,2.68-.74,10.24-3.2,20.14-11.29,27.34-19.07,2.4-2.58,2.23-3.06,3.82-5.82-3.86,4.89-33,17-20.7,10.48,1.65-.87,3.37-1.68,5.07-2.59,4.23-2,9.4-4.6,12.86-7.75,1.34-1.22,2.66-2.45,3.93-3.73.53-.53,1-1.11,1.56-1.64l1.63-2.27c-.27.21-.55.41-.83.6a.92.92,0,0,1-.39.16c-.91.77-1.84,1.51-2.77,2.24C301.68,178.48,285.76,184.66,262.24,187.81Z" transform="translate(-6.98 -7.97)"/><path class="cls-7" d="M288,197.37c-11.14-5.64-24.58.16-23.92,14.14,2.26-4.65,7.28-8.37,11.62-10.29a25.6,25.6,0,0,1,11.69-2.51,17.66,17.66,0,0,1,3.45.51A15.93,15.93,0,0,0,288,197.37Z" transform="translate(-6.98 -7.97)"/><path class="cls-7" d="M276.79,203.46c-5.46,2.44-10.56,6.39-11.82,12.25a12.16,12.16,0,0,0,3.73,5,17,17,0,0,0,14.37,3c-2.59-3.4-9.77-9.88-3.83-13.09,2.48-1.34,4.2,0,5.16,2.34,1.19,3,1.69,6.23,3.41,8.95a14.22,14.22,0,0,0,7.63-14.58h0C291,204.24,284,203.73,279,206a.1.1,0,0,1-.11-.16c2.18-2.12,6-2.53,8.88-2.42a15.77,15.77,0,0,1,7.1,1.59,10.93,10.93,0,0,0-.57-1.41c-2.48-1.14-4.7-2.24-7.56-2.29A23.66,23.66,0,0,0,276.79,203.46Z" transform="translate(-6.98 -7.97)"/><path class="cls-7" d="M279.55,212.67c-3.06,2.81,4.09,7.35,5.24,10.61.48-.16.95-.33,1.42-.53-1.42-1.74-1.92-4.39-2.56-6.46C283.09,214.47,282.1,210.32,279.55,212.67Z" transform="translate(-6.98 -7.97)"/><path class="cls-7" d="M273.81,225.91a16.38,16.38,0,0,1-9.88-7.27.81.81,0,0,1-1-.66,10.48,10.48,0,0,1-.1-1.47,15.49,15.49,0,0,1-1.15-5.47,17.43,17.43,0,0,1,2.23-9,19.81,19.81,0,0,1-4.85.42c-13.16.19-28.33-2.68-40-9.8-6.08,5.1-9.42,20.88-7.4,35.05,2.05,14.4,13.58,32.77,23.8,50.17,15.13,25.77,23.41,37.56,26.94,42.15.66.85,1.17,1.47,1.53,1.89a.17.17,0,0,1,0,.15,1.21,1.21,0,0,1,.83,1.33h0a1.4,1.4,0,0,1-.37.92h0a1.27,1.27,0,0,1-1.17.44.19.19,0,0,1-.16,0h0c-.13,0,.08.11-.25.23-.54.19-1.27.48-2.11.87-4.07,1.85-10.85,5.82-10.66,10.91.21,5.79,15.29,5.32,24.55,5,1.81-.06,3.42-.11,4.5-.11,3.53,0,6.14-1.32,7.68-4.17,1.31-2.43,1.92-6,1.75-10.68a1.11,1.11,0,0,1-.25-.45c-1-3-.76-10.07-1-13.94A124.56,124.56,0,0,0,285,295.6a69.24,69.24,0,0,0-5.42-16.5,42.78,42.78,0,0,0-4.46-7.37c-.58-.75-1.19-1.45-1.81-2.15-3.55-2.47-7.32-5.47-9.48-9.25-.37-.66.5-1.3,1.08-.93,3.54,2.24,6.38,5.49,9.83,7.9s7.37,4.68,11.65,4.72c4.87.05,8.7-3.09,11.23-7.09,1.38-2.17,2.42-4.48,3.62-6.74a41.77,41.77,0,0,1,3.91-5.77.44.44,0,0,1,.72.49c-1.6,2.59-2.5,5.78-3.76,8.56a43.08,43.08,0,0,1-2.38,4.63c-.92,4.93-2.39,9.76-3.11,14.74a141.64,141.64,0,0,0-1.31,15.52c-.17,5.31-.16,10.62-.21,15.94,0,1.82,0,3.64-.08,5.46l.87.23s-.48,1.68-1.07,4.14c0,.44,0,.88-.08,1.33l-.24.07c-1.18,5.22-2.53,12.8-1.51,16.77,1.22,1.29,7,1.91,13.48,2,6.76,0,14.22-.61,18.56-1.84a7.48,7.48,0,0,0,2.73-1.19c7.87-7.32-10.13-11.54-10.18-11.55l-1.38-.33.37-1.39c0-.07,5.6-21.33,15-47.1l-.25.07c.38-.78.74-1.56,1.08-2.35.95-2.56,1.93-5.16,2.95-7.78a114.48,114.48,0,0,0,4.23-50.45c-4-27.59-19.91-46.63-22.34-42.16-8,8.54-16.67,15.52-27.79,19.28,3.86,2.1,7.16,5.55,8.08,10,1.32,6.45-.64,13.16-6.24,17.12a21.43,21.43,0,0,1-17.52,3.33Zm-33,2a19.68,19.68,0,0,0-2.15,6.21,1.09,1.09,0,0,1-1.66.82,24.39,24.39,0,0,1-8.27-11.78c-1,2.14-.9,4.79-.75,7a1,1,0,0,1-1.91.67c-3.26-5.65-5.21-12.77-2.52-19.08a.33.33,0,0,1,.62.22c-1.17,4.71-.2,9.76,1.75,14.17a10.12,10.12,0,0,1,2.54-6.27,1,1,0,0,1,1.72.57A22.62,22.62,0,0,0,236.88,232a8.49,8.49,0,0,1,2.67-5c.6-.48,1.65.09,1.29.88Zm85.26,47.18c-.46.39-1-.17-.73-.65,1.84-3.37,4.06-6.49,5.57-10a57.63,57.63,0,0,0,3.16-9.82c1.52-6.62,2.13-13.37,4.09-19.88a.16.16,0,0,1,.31,0,118.83,118.83,0,0,1-2.87,21.71c-1.6,6.55-4.24,14.06-9.53,18.63Zm-14.47-47.7c1.12-4,1.27-8.11,2.31-12.07a.62.62,0,0,1,1.19.07c.05.52.07,1.06.08,1.6a.89.89,0,0,1,.55.23,18.94,18.94,0,0,1,3.36,5.36c.58,1.16,1.13,2.33,1.66,3.52a87.58,87.58,0,0,0,2.44-12.56,25.72,25.72,0,0,0-.39-8.12c-.67-2.8-2-5.08-3.26-7.62a.59.59,0,0,1,1-.65c3.68,3.89,4.94,10,4.6,15.3-.37,5.65-2,11.12-3.15,16.65-.17.83-1.36,1.29-1.77.36-.9-2-1.78-4.06-2.8-6-.7-1.37-1.59-2.67-2.33-4a46.91,46.91,0,0,1-2,9.18A32,32,0,0,1,307,240.12a.94.94,0,0,1-1.69-.33,19,19,0,0,0-1.3-4.88c-.69-1.48-1.88-2.56-2.59-4a.73.73,0,0,1,.89-1c2.74,1,3.87,4.53,4.48,7.49a31.25,31.25,0,0,0,4.81-10Zm-3.84,55.25a.41.41,0,0,1,.81.05c-.07,4.64,2,8.32,3.34,12.59a.72.72,0,0,1-.56.84,7.7,7.7,0,0,1-6.47-2.3c.56,1.41,1.52,2.64,2.26,4.08a.59.59,0,0,1-.85.73c-2.34-1.8-3.33-4.93-3.4-7.81a.79.79,0,0,1,1.38-.47c1.44,2.06,3.32,4.34,6,4.42C309,290.73,306.89,287,307.79,282.62Z" transform="translate(-6.98 -7.97)"/><path class="cls-10" d="M273.81,225.91a16.38,16.38,0,0,1-9.88-7.27.81.81,0,0,1-1-.66,10.48,10.48,0,0,1-.1-1.47,15.49,15.49,0,0,1-1.15-5.47,17.43,17.43,0,0,1,2.23-9,19.81,19.81,0,0,1-4.85.42c-10.9.16-23.17-1.79-33.72-6.5-4,10.6-4.06,18.57-3,23.86a16.66,16.66,0,0,1,1.19-8.07.33.33,0,0,1,.62.22c-1.17,4.71-.2,9.76,1.75,14.17a10.12,10.12,0,0,1,2.54-6.27,1,1,0,0,1,1.72.57A22.62,22.62,0,0,0,236.88,232a8.49,8.49,0,0,1,2.67-5c.6-.48,1.65.09,1.29.88l-.84,1.84a47.67,47.67,0,0,0,15.23,11.41l9.79,4.37a18,18,0,0,1-9.63-.69c-4.81-1.68,4.48,14,11.66,19.62a20.48,20.48,0,0,1-3.18-4.11c-.37-.66.5-1.3,1.08-.93,3.54,2.24,6.38,5.49,9.83,7.9a27.75,27.75,0,0,0,8,4.16,16,16,0,0,0,5.1.46l.5-.05c3.94-.68,7.09-3.49,9.27-6.94,1.38-2.17,2.42-4.48,3.62-6.74a41.77,41.77,0,0,1,3.91-5.77.44.44,0,0,1,.72.49c-1.6,2.59-2.5,5.78-3.76,8.56l-.58,1.26,1-1.37a37.85,37.85,0,0,0,6.52-14.93l-7.38,1.37s2-6.2.93-11.48l-1-5c-.08-.13-.15-.26-.22-.4a.73.73,0,0,1,.89-1c2.74,1,3.87,4.53,4.48,7.49a31.25,31.25,0,0,0,4.81-10c1.12-4,1.27-8.11,2.31-12.07a.62.62,0,0,1,1.19.07c.05.52.07,1.06.08,1.6a.89.89,0,0,1,.55.23,18.94,18.94,0,0,1,3.36,5.36c.58,1.16,1.13,2.33,1.66,3.52a87.58,87.58,0,0,0,2.44-12.56,25.72,25.72,0,0,0-.39-8.12c-.67-2.8-2-5.08-3.26-7.62a.59.59,0,0,1,1-.65,14,14,0,0,1,1.57,2,17.74,17.74,0,0,0-2.05-4.4s7.9,6.43,7.71,4.59c-.16-1.54-2.64-15.68-10-23.59a4.79,4.79,0,0,0-.48.44c-8,8.54-16.67,15.52-27.79,19.28,3.86,2.1,7.16,5.55,8.08,10,1.32,6.45-.64,13.16-6.24,17.12a21.43,21.43,0,0,1-17.52,3.33Zm28.39,6.23a18.25,18.25,0,0,1,1.84,2.77,11.59,11.59,0,0,1,.71,2l-2.55-4.77Zm21.89-12.47a55.26,55.26,0,0,0,1-6.63A35.88,35.88,0,0,1,324.09,219.67Z" transform="translate(-6.98 -7.97)"/><path class="cls-9" d="M233,279.37a137.86,137.86,0,0,1-16.16-40c-1.75,10.16-4.44,20-7,29.23-7,25.61-12.72,46.42,7.58,54.74a83.07,83.07,0,0,0,13.54,4c4.82,1,13,1.89,19.17,2.52a29.23,29.23,0,0,1,9.44-6.51l1.29-.56-.76-1C256.56,317.14,248.19,305.22,233,279.37Z" transform="translate(-6.98 -7.97)"/><path class="cls-7" d="M279,272.83a50.13,50.13,0,0,1,2.67,4.69,71.31,71.31,0,0,1,5.7,16.52A119.6,119.6,0,0,1,289.84,312c.18,2.62.76,6.94,1,10.33l.24,0c.11,1,.19,2,.25,2.88.37-1.79.75-3.42,1.07-4.73,0-.39,0-.79,0-1.18.05-2.6.12-5.2.14-7.81,0-5.31,0-10.63.24-15.95a114,114,0,0,1,1.66-16.27A63.49,63.49,0,0,1,296.7,270c-2.69,2.71-6,4.6-10,4.58A19.29,19.29,0,0,1,279,272.83Z" transform="translate(-6.98 -7.97)"/><path class="cls-9" d="M319.72,325.23c4.5-1.69,10.42-4.33,13.14-6.2a18.84,18.84,0,0,0,6.29-6.61c9.18-17.62,3.51-41.09.59-50.51C335.28,282.2,325.5,304,319.72,325.23Z" transform="translate(-6.98 -7.97)"/><path class="cls-8" d="M194.33,109.93a16.27,16.27,0,0,0,1.83-5,12.93,12.93,0,0,0,.2-1.41,1.4,1.4,0,0,1-.38.3c-3.17-5.29-7.71-16.93-13.43-19.88.41,2.87,2.28,5.91,3.39,8.11l.05.08c.4.8,1.81,3.48,3.37,6.45l.32.6c.18.36.37.72.56,1.08v0h0c1.9,3.63,3.79,7.24,4.18,8a1.37,1.37,0,0,1,.07.16c0,.13-.07.26-.1.39l-.45,1.61C194.08,110.37,194.2,110.16,194.33,109.93Z" transform="translate(-6.98 -7.97)"/><path class="cls-13" d="M292.8,295.47a114,114,0,0,1,1.66-16.27A63.49,63.49,0,0,1,296.7,270c-2.69,2.71-6,4.6-10,4.58a19.29,19.29,0,0,1-7.73-1.78,50.13,50.13,0,0,1,2.67,4.69,71.31,71.31,0,0,1,5.7,16.52A119.6,119.6,0,0,1,289.84,312c.13,1.89.47,4.68.73,7.36.57.45,1.16.89,1.75,1.32l.06-.23c0-.39,0-.79,0-1.18.05-2.6.12-5.2.14-7.81C292.6,306.11,292.58,300.79,292.8,295.47Z" transform="translate(-6.98 -7.97)"/><path class="cls-8" d="M302.51,118.86l-.26.07q-6.09,1.8-12.06,4c-2.87,2.2-4.39,4.88-3.64,7a3.54,3.54,0,0,0,.71,1.18,166,166,0,0,1,19.2-3.63c1.77-1.86,2.58-3.88,2-5.57C307.78,120,305.51,119,302.51,118.86Z" transform="translate(-6.98 -7.97)"/><path class="cls-8" d="M304.47,129.24c-5.19.57-10.48,1.4-16.37,2.63,2.37,1.57,6.84,1.65,11.45,0A19.88,19.88,0,0,0,304.47,129.24Z" transform="translate(-6.98 -7.97)"/><path class="cls-6" d="M185.87,108.21c-4.57,3-9.36,2.74-14.39,1.7a28.93,28.93,0,0,1,4.5-3.16c.84-.45-.49-1-1.5-1.24a16.84,16.84,0,0,0-9-.09c.59-1.09,1.16-2.19,1.75-3.28.35-.64-.06-1.69-.93-1.43-3.52,1.06-7.09,2-10.59,3.1.43-.64.83-1.3,1.19-1.93,1.89-3.32,2.91-7.2,1.62-10.83a1,1,0,0,0-1.8-.11c-1.51,2.47-4.37,4.15-6.78,5.61a101.59,101.59,0,0,1-11.15,5.68c-5.76,2.57-12.53,5.37-17.41,5.49-1.46,0-18.6-19.93-27-23.53-.77-.46-4.16-.94-4.53-.13-3.49,7.78-2.29,17.41-1.44,25.53.47,4.38,1.1,8.74,1.61,13.11.27,2.31.83,5.09.5,7.47a58.91,58.91,0,0,0-4.66,5.73A89.46,89.46,0,0,0,78,147.7c-1.52-.17-3-.32-4.57-.43-.41,0-.43.55-.05.62l4.16.73c-1.65,3.29-3.13,6.67-4.75,10-1.21.09-2.41.2-3.61.32a.31.31,0,0,0,0,.61h3.13c-.33.66-.67,1.31-1,2-2.21,4.16-5,8.58-9.16,11a1.19,1.19,0,0,0,.74,2.23,27.73,27.73,0,0,0,11.48-4.23h0c-2.16,5.62-4.09,11.71-9,15.64-1.17.93.29,2.53,1.46,1.69a55.21,55.21,0,0,1,7.65-4.12c.85-.42,1.74-.88,2.6-1.4-.42,3.8-.31,7.62-2.05,11.22-.43.88.64,1.47,1.36,1.2a48.35,48.35,0,0,1,6.56-1.93,21.22,21.22,0,0,1,2.3-.34A34.88,34.88,0,0,0,82.06,196c-.5.53-.35,1.55.5,1.56a28,28,0,0,1,10.28,2c1.42.57,2.8,1.24,4.17,1.91a24.94,24.94,0,0,0,3.68,1.76c-.44,4,3,8.31,5.84,10.68-5.44,10-7.12,18.41-7.73,28.55-1,16.1.34,22.67,3.35,36.35.06.3-7.73,6.93-12.69,14.46-6.78,10.27-6.76,23.4-2.14,35,4.92,12.35,14.64,19.29,24.88,24,27.17,12.44,50.48,7.77,72.62,4,6.46-1.09,8.91-2.34,16.09-2.56,12.8-.41,24.62.09,37.36,0,23.15-.15,9.65-5.75,8.07-13l.31.28a3.35,3.35,0,0,1,.21-3.5s.81-.23,2.07-.62c31.45-14,39-58.75,14.14-84.27-14.92-15.32-38.39-19.5-56.56-33.12-4.87-3.65-9.21-7.45-9.81-14,3.29.66,6.81,2.93,7,2.17,2.64-1.94-.52-7.4-1.09-9.28,1.11,1.36,2.82,3.6,4.54,3.74a.59.59,0,0,0,.61-.68,1,1,0,0,0,.1-.31c.21-1.74-.58-3.67-.63-5.46a20.2,20.2,0,0,1,.46-4.7c1.77,1.36,4.55,3.23,6.85,2.8a.76.76,0,0,0,.49-1.1.68.68,0,0,0,0-.14,79.53,79.53,0,0,0-1-12.8l.09,0c-.08-.37,18.11,3.7,18,1.61,0-.32-18.23-2.82-18.3-3.15-.48-2.21-1.2-5.53-1.7-7.95-.09-.44,18.37.22,18.29-.2C225,168,217.64,169,211.77,169c-.21-.68-.42-1.36-.66-2a43.49,43.49,0,0,0-2.19-5.1c2.59-.23,20.2-1.6,20.15-1.71a74.49,74.49,0,0,0-10.27-.25c-4.17.2-10.32.84-10.44.85-1.27-2.45-2.66-4.84-3.93-7.29-.88-1.68-1.72-3.37-2.56-5.06l.07,0c-.69-1.06-1.12-1.7-1.12-1.7l1.33-3.47c1.57-8.86,6.66-16.84,9.18-25.79a70.75,70.75,0,0,0,2.12-12c.78-7.47-.81-13.59-10.81-8.41-6.14,3.17-13.37,9-16.77,11.16ZM265.74,317.5h0c-19.18-13.45-19.53-43.56,6.17-43.57,6.2,16.43,2.42,29.29-6.17,43.57ZM236,238.44h0c4.34,2.12,8.64,4.32,12.8,6.77-.87,3.11-3.08,5.86-5,8.37a101.14,101.14,0,0,1-9.71,10.67c-3.35,3.27-6.85,6.39-10.46,9.37-1.25,1-2.52,2.07-3.83,3.06,3.26-5.72,6.4-11.52,9.26-17.44a103.12,103.12,0,0,0,5.24-12.7,30.55,30.55,0,0,0,1.7-8.1Zm-22.41-11.37h0c3.92,2.31,8,4.37,12.07,6.36l1.83.89a29.6,29.6,0,0,1-4.67,6.59,124.66,124.66,0,0,1-9.46,9.77c-3,2.87-6.16,5.65-9.37,8.31-1,.78-1.92,1.64-2.93,2.43,2.54-5.87,5.13-11.73,7.57-17.64,1.42-3.41,2.77-6.86,3.9-10.37a16,16,0,0,0,1.06-6.34ZM195.06,209.7h0c1.91,4.59,6,8.34,9.75,11.37.45.36.9.7,1.35,1-.95,2.74-3,5.25-4.65,7.55a136.39,136.39,0,0,1-9.15,11.07,112.23,112.23,0,0,1-9.88,9.75,27.14,27.14,0,0,1-4.81,3.69,210.27,210.27,0,0,0,12-25.63,121.47,121.47,0,0,0,4.46-13.13,24,24,0,0,0,.93-5.71Zm3.1-77.18c.16-.6.33-1.2.46-1.81s-.66-1-1.17-.78h0a16,16,0,0,1-1.62.6c.88-1.93,1.91-3.8,2.71-5.77a7.88,7.88,0,0,0,.47-2.08l-.33,0c-1.33-1.19-6.53,2.3-7.33,2.87a130.29,130.29,0,0,1,7.24-13.88,61.89,61.89,0,0,1,6.35-9.14c6.16-7.1,6.67-1.69,6,4.07a69.4,69.4,0,0,1-2.73,12.87c-2.14,6.66-8.17,17.23-8.72,24.38-1.48-2.45-2.66-9-1.29-11.3ZM91.3,110.94h0a116.65,116.65,0,0,1-.92-14,34,34,0,0,1,1.24-10,54.82,54.82,0,0,1,9.64,13.25,64.89,64.89,0,0,1,5.3,15.33,13.89,13.89,0,0,0-6-2.18.91.91,0,0,0-.87,1.29,40.38,40.38,0,0,1,3,6.28,29.4,29.4,0,0,0-9.18,6.42l-.32.2a35.64,35.64,0,0,0-.32-4c-.42-4.23-1-8.44-1.53-12.66Zm-5,28.08h0A93.54,93.54,0,0,1,92,131.44a1.07,1.07,0,0,0,.51-.5l.06-.15c2.14-2.4,8.28-7.39,11.54-8.61a.87.87,0,0,0,.4-1.13,47.36,47.36,0,0,0-2.36-5.53,20,20,0,0,1,5.21,2.75.94.94,0,0,0,1.43-1c-1.61-9.23-5.93-21.42-13.15-28.48,9,4.11,14.73,14,19.82,18.92,3,2.93,2.77,3.84,7.13,3.17,1.43-.22,16.43-6.66,17.52-7.13A96.24,96.24,0,0,0,151.55,98a27.5,27.5,0,0,0,5.52-4.09c.47,5.4-4.38,11.47-8.65,14.06a1.06,1.06,0,0,0,.92,1.91,14.94,14.94,0,0,0,5.35-4.57.66.66,0,0,0,.2,0,50.48,50.48,0,0,0,9.72-2.16c-2.14,3.85-6,5.85-7.86,9.1a.7.7,0,0,0,.89,1c2.71-2.28,5.31-7.58,13.51-6a14.62,14.62,0,0,0-4.56,5.94c-.54,1.34,1.43,1.93,2,.71a7.35,7.35,0,0,1,1.63-2.11,18.78,18.78,0,0,0,12.75.13c3.43-1.09,6.51-3.56,9.31-5.76,3.14-2.46,6.15-5,9.74-6.83,1.9-.94,6.19-2.93,8.09-1.07-1.57-.8-3.18.17-4.61,1.36-2.91,2.44-5.14,5.82-7.19,9a119.17,119.17,0,0,0-6.57,11.58c-1.51,3-2.52,4.31-3.41,8a1,1,0,0,0,1.58,1.06,24.15,24.15,0,0,1,6.51-4.2c-1,2.34-2.22,4.56-3.06,7a.85.85,0,0,0,1.37.92,6.61,6.61,0,0,1,1.93-.88,52.3,52.3,0,0,0-1.06,5.49c-.08,2.08,2.39,7.24,3.34,9.41.15.35.31.71.47,1.06l-.12,0c.23.4.47.81.62,1.11h0c.73,1.59,1.49,3.18,2.26,4.76,1.18,2.45,2.5,4.83,3.74,7.24-1.82.22-3.65.46-5.46.72q-7.53,1.08-14.95,2.85c-2.48.59-4.94,1.3-7.39,2a21.27,21.27,0,0,0-5.55,2.14l0,0c1.92-1,4.11-1.28,6.19-1.79q3.43-.85,6.88-1.61c4.73-1,9.5-1.85,14.28-2.52,2.17-.3,4.35-.55,6.53-.77.77,1.53,1.5,3.08,2.13,4.69.26.67.5,1.36.73,2q-3.57-.22-7.14-.33-7.8-.22-15.6.29c-3.93.25-8.45.28-12.18,1.73l0,.05c2.05-.66,4.24-.54,6.36-.68q3.61-.24,7.21-.38c4.95-.18,9.91-.14,14.85.06,2.29.09,4.57.24,6.85.43a57.31,57.31,0,0,1,1.72,7.9q-4.68-1-9.38-1.89-7.54-1.35-15.2-2c-2.38-.2-4.77-.33-7.17-.37a25,25,0,0,0-6.41.29v0c2.12-.36,4.25.07,6.36.23,2.38.18,4.76.38,7.15.62,4.84.5,9.67,1.22,14.45,2.1,3.49.64,6.94,1.4,10.37,2.23l.06.41c.52,3.93.4,8,1,12-.62-.23-10.72-7.23-9.13-4.66a23.17,23.17,0,0,0,2.77,3,15.08,15.08,0,0,0-1.14,5.69,21.68,21.68,0,0,0,0,2.77c-.4-.34-.77-.66-1.07-1s-3.88-5-4.09-5a.51.51,0,0,0-.85.55,5.37,5.37,0,0,0,.21.56c.2,1.68,3.55,11,3.09,11.87-10.38-10.57-33.82,4.69-46.15,5.95-25.7,2.62-34.63-2.75-57.36-11.09-.27-.11-.53-.23-.77-.35-1.56-.76-3.12-1.5-4.73-2.16h0a26.09,26.09,0,0,0-8.89-1.92c4.31-4.8.89-2,5.5-4.2,2.26-1.09-6.17-1.07-7.58-.79a39.44,39.44,0,0,0-4.89,1.38A32.34,32.34,0,0,0,78.85,181,8.24,8.24,0,0,0,81,178.51c.83-.91,2-2.85-.95-1.09-2.42,1.45-4.52,3.23-7.07,4.49l-1.74.86a45.2,45.2,0,0,0,5.32-12.62c7.65-1.11,14.49-2,22-2.53,4.88-.32,9.77-.42,14.66-.37q3.65,0,7.29.22c2.3.11,4.74-.07,7,.59v0c-3.89-1.44-8.6-1.34-12.73-1.54-5.11-.25-10.24-.18-15.36.06A140.75,140.75,0,0,0,76.82,169c.26-1.08,1-1.49,1.68-2.43,3.13-4.27-7.65,3.2-8.09,3.42a19.93,19.93,0,0,1-2.86,1.21c3.19-3.23,5.5-7.43,7.5-11.68h0c12.09-.05,26.36.45,38.46,2.34,2.37.37,4.72.81,7.08,1.26,2.08.39,4.26.54,6.19,1.44l0,0c-3.45-1.89-7.92-2.47-11.77-3.2-14.76-2.8-23.16-3.7-39.48-2.88,1.12-2.43,2.16-4.86,3.23-7.11h0c.37-.77.76-1.52,1.16-2.27,9.76,1.72,26.11,5.41,35.88,8.76q3.39,1.17,6.72,2.46c2.12.82,4.49,1.4,6.35,2.73l0,0c-3.19-2.59-7.68-3.95-11.47-5.42a150.75,150.75,0,0,0-20.27-6.28l.09-.1-.81-.2-.21-.11s0,.11,0,.17a152,152,0,0,0-15.7-3c1.76-3.1,3.78-6,5.85-9Zm99.91,11.81a7.76,7.76,0,0,1,1.56,2.68,10.19,10.19,0,0,0,1.44-.29,7.75,7.75,0,0,0,2.6-1.26c.31-.13.59-.23.87-.32a.28.28,0,0,1,0,.35,7.23,7.23,0,0,1-3,2.55,12,12,0,0,1-1.37.5,7.5,7.5,0,0,1,.22,2,6.22,6.22,0,0,0,1.63-.19c1-.31,2.88-1.18,3.35-2.23l0,0c-.31.64-.28,1.37-.78,1.9a5.11,5.11,0,0,1-1.92,1.33,10.81,10.81,0,0,1-2.57.65,5.83,5.83,0,0,1-.23.58c-.18.37-.74.61-1,.21a7,7,0,0,1-.61-1.1l-.11-.08a.45.45,0,0,1-.13-.51c-.19-.52-2-5-2-5a5.4,5.4,0,0,0-4.27-2c-4.12,0-7.4,2.73-10.29,5.38-.28.25-.76-.06-.6-.41,1.83-4.18,6.84-7.69,11.42-7.58a7.63,7.63,0,0,1,5.84,2.83Zm-82.85,56.48h0a8,8,0,0,1-1.72-3.94h.19a.67.67,0,0,0,.37-.11c22.84,11.46,40.94,13,51.68,11.14,14.32-2.45,20.6-6.34,32.13-10.68-1.5,1.3-2.88,2.91-4.29,4.12a76.19,76.19,0,0,1-10.24,7.35c-7.81,4.66-16.63,7.54-25.68,6.65a12.52,12.52,0,0,0-4.95-4.12c-4.31-1.94-10,.38-13.68,3.1-6.39-1.68-9.79-2.42-18.51-8.34a23.47,23.47,0,0,1-5.3-5.18Zm15.51,30.1h0c.38-1.13.82-2.23,1.3-3.33,4.81-1.34,9.9-.73,14.66.39s9,3.16,13.57,4.62c0,1.37-.18,2.86-.23,4.3a11,11,0,0,0-3.1-2.48,33.21,33.21,0,0,0-10.45-3.35,38.13,38.13,0,0,0-10.93-.51c-1.73.18-4.32.62-5.38,2.25.21-.62.35-1.26.56-1.89Zm-.18,3h0c1.05-1.6,4.05-1.71,5.7-1.81a34.71,34.71,0,0,1,5.67.18,4.52,4.52,0,0,0-2.32,2.9,4.64,4.64,0,0,0,0,2.25l-.56-.11c-1.3-.28-2.59-.61-3.87-1-1.53-.44-3.6-1-4.69-2.32a.57.57,0,0,0,.11-.11Zm10.63,1.83h0c.19-1.52,1.31-2,2.6-2.35a.7.7,0,0,0,.5-.82l.2,0a.78.78,0,0,0,0,.4,13.3,13.3,0,0,0,1,1.61,3.6,3.6,0,0,1,.25,1.92,2.51,2.51,0,0,1-2.91,2.13c-1.41-.17-1.78-1.75-1.63-2.92Zm5.1-2.84h0a35.26,35.26,0,0,1,8.71,2.66,7.34,7.34,0,0,1,3.89,3.54c-.33.07-.66.15-1,.2a29.35,29.35,0,0,1-5.62.22c-1.61,0-3.22-.19-4.82-.37-.33,0-.69-.11-1.05-.18a3.86,3.86,0,0,0,.71-1.38c.34-1.32.21-3.56-.84-4.69Zm-.2-6.6h0c-4.3-.93-9.08-1.48-13.4-.14a36.55,36.55,0,0,1,5.25-8,18.48,18.48,0,0,1,3.15-2.9.24.24,0,0,0,.18-.14c3.25-2.28,7.24-3.37,11-1.67,4.23,1.91,6.08,7.29,7,11.47a39,39,0,0,1,.86,6.2,55,55,0,0,0-14.1-4.77Zm-33.08,10.47h0c0-1,.11-2,.19-3,7.85,8.32,9.71,12.2,11.12,17,2.47,8.36-.68,16.09-5.48,31.39q-.63-2.6-1.23-5.19a.75.75,0,0,0-.15-.67c-3.37-14.79-5.07-22.27-4.45-39.52ZM98.47,339c-14.74-15.21-17.59-37.51,2.4-53.83,2.36-1.93,2.17-2.68,2.79,0,1,4.34,2.22,9.46,3.33,13.47,1,3.66,4.27,11.78,5.93,16.37,1,2.75,2.15,4.6-.13,2.44-7.09-6.73-5.78-6.22-7.56-6.69-2.89-.76,2.06,7.2,9,11.52,6.65,4.15,14.92,4.7,30.19,2.36,11.78-1.81,24.32-4.7,35.45-9.18,11.4-4.58,28.41-15.63,40.25-10.25,6.29,2.85,9.25,10,9.38,16.58s-2.56,13.75-8,18c-.75.58-1.53,1.14-2.33,1.68-8.73,5.84-27.81,10.15-43.11,12.84-26.08,4.6-57.94,4.87-77.52-15.34ZM141.8,317.9h0c-.29-2.68-.54-5.38-.8-8.07a297.31,297.31,0,0,0-5-35.16c-.35-1.67-.68-3.54-1.2-5.36.26.21.54.4.82.59a9.83,9.83,0,0,0,10,.65,21.57,21.57,0,0,0,6.1-4.9c-.47,2-.8,4.06-1.08,6.09-1.76,12.38-2.23,23.77-2.72,36.22-.17,4.39-.52,8.82-.57,13.22-1.7.3-3.4.58-5.1.82a24.48,24.48,0,0,0-.47-4.1Zm61.62,33.49,2.1-.71c7.56-2.66,16.3-6.4,21.36-13,7.93-10.27,6.71-28.29-5.3-34.5-7.46-3.85-16.43-2-24,1.08l-.22.1c-.3-1-.8-2-1.1-3a32.63,32.63,0,0,1-1.07-6c-1.37-14.07,2.07-21.58,15.17-26.24.58-.21.43-1.06-.06-1.24-13.82-5.1-18.59,19-18,27.35a34.52,34.52,0,0,0,1.06,6.39c.21.78,1.6,3.69,1,3.95l-21.23,9.87a202.34,202.34,0,0,0,9.63-24.19c1.59-4.68,3.13-9.38,4.58-14.11,1.31-4.31,3-3.79,3.75-8.22,0-.22-.28-.31-.39-.14-2.36,3.62-3.54,3.08-5,7.09-1.71,4.63-3.22,9.33-4.81,14a190.92,190.92,0,0,1-10.7,26.44c-2.26.56-4.57.95-6.83,1.44-3,.66-6.05,1.33-9.08,2-1.53.32-3.07.63-4.61.92.47-3.91.36-8,.51-11.87.48-12.1,1-23.46,2.42-35.51a102.15,102.15,0,0,1,2-10.94c1.1-1.25,2.19-2.51,3.34-3.72s2.91-2.42,3.51-3.86a.6.6,0,0,0-.53-.8c-2.65,0-5.33,3.83-6.91,5.62-2.43,2.74-4.78,5.62-7.74,7.8a8,8,0,0,1-9.39.53,21.73,21.73,0,0,1-5.37-5.45c-.71-.92-1.42-1.85-2.18-2.73a36.19,36.19,0,0,0-3.08-2.73c-.41-.38-1.09.18-.68.6,1.83,1.87,3.13,4.6,4.66,6.74a30,30,0,0,0,1.92,2.42c.12.52.23,1,.37,1.55.65,2.44,1.12,4.94,1.54,7.43,2.09,12.15,3.55,22,4.71,34.46.25,2.6.49,5.2.76,7.79a19.3,19.3,0,0,0,.52,4.2c-1.78.21-3.56.38-5.34.49-10.85.68-16.24,0-20.92-11.63a131.5,131.5,0,0,1-4.49-13.62c-.42-1.51-.82-3-1.21-4.54a.85.85,0,0,0,.06-.17c2.85-12.15,10-21.37,7.42-33.36-1.37-6.21-5.31-15.94-14-21.34a65,65,0,0,1,7.11-22.84c4.24,3.24,11.6,7.08,16.37,7.84-3,2.77-4.12,4.93-5.82,8.62-1,2.21-2.66,5.86-2,8.41.28,1.65,2.2,2.7,3.6,3.41a22.8,22.8,0,0,0,4.8,1.62,13.11,13.11,0,0,0,3.17.69,3.8,3.8,0,0,0,1.25.83,3.7,3.7,0,0,0,2.6.06,23.29,23.29,0,0,0,2.42.39c1.91.31,3.82.51,5.75.63,2.17.13,7.46.61,8.87-1.67l.06-.08c1.07-2.05.8-5,.74-7.21a42.37,42.37,0,0,0-1.1-8.7,25,25,0,0,0-2.55-6.71c8.62,1.57,17.54-1.82,25.08-6.15a76.55,76.55,0,0,0,10.82-7.6c1.85-1.53,4.54-3.43,5.89-5.66a26,26,0,0,1-2.91,6,32.21,32.21,0,0,1-6.44,6.75,51.87,51.87,0,0,1-8,5.23c-2.59,1.43-5.15,3.05-7.8,4.33a.09.09,0,0,0,.08.16,67.07,67.07,0,0,0,8.78-3.53,54.73,54.73,0,0,0,8.3-5.41c4.26-3.39,8.34-8.27,9.75-13.67a28.31,28.31,0,0,1,3.51.52,13.31,13.31,0,0,0,.39,3.11,10.31,10.31,0,0,1-.72,2.93c-.57,1.54-.9,3.19-1.39,4.76-1.35,4.28-3,8.47-4.63,12.64a205.43,205.43,0,0,1-13.16,27.42,1.15,1.15,0,0,0,.85,1.79c2.65.23,5.44-2.2,7.37-3.74a95.44,95.44,0,0,0,10.59-10.21,143.61,143.61,0,0,0,9.9-11.86,35.19,35.19,0,0,0,4.85-7.77c1.58,1.11,3.2,2.15,4.85,3.15h0c-4.24,12.8-10.23,25.12-15.49,37.54a1.18,1.18,0,0,0,1.63,1.45,34.11,34.11,0,0,0,6.29-4.61c3.42-2.82,6.73-5.81,9.95-8.86a137.31,137.31,0,0,0,9.53-9.92,28.23,28.23,0,0,0,4.83-6.88l4.89,2.36c-1.21,7.26-4.32,14.21-7.5,20.82-3.48,7.25-7.55,14.16-11.46,21.18-.49.89.34,2.3,1.42,1.64C224,277,230.32,271,236.18,265.18a94.47,94.47,0,0,0,9.86-11.1,26.51,26.51,0,0,0,4.32-8c12.11,7.09,17.82,16.1,20.71,25.74-34.34,1.37-21.24,43.77-6.42,47.37a44.06,44.06,0,0,1-10.85,11.46c-4,2.9-8.53,4.68-13,6.61-1.07.46-.45,2,.61,1.83a27.31,27.31,0,0,0,2.72-.56c-.6,10.05,9.26,10.63-1.49,12.38C237,351.87,224,350.35,203.42,351.39Z" transform="translate(-6.98 -7.97)"/><path class="cls-6" d="M147.48,158.45c-4.84,3.44,3,9.43,6,11.05-.54,2.67-.49,5.41-1.44,8-1.3,3.59-4.64,5-8.22,5.22-3.13.18-6.54-1-8.15-3.77s.06-4.84,2-6.91c.53-.58.21-1.72-.71-1.48-3.36.91-4.77,4.79-3.94,7.88,1,3.7,4.55,5.76,8.11,6.37,4.18.71,9.14-.67,11.69-4.27.06-.08.11-.17.16-.25,1.61,4.57,7.55,7.25,12.45,6.07a9,9,0,0,0,6.23-5.53c.82-2.22.37-6.51-2.44-7-.47-.08-.77.43-.73.83a8.22,8.22,0,0,0,1,2.38,4.44,4.44,0,0,1,0,3,6.81,6.81,0,0,1-4.93,4.21c-2.54.64-5.4-.35-7.48-1.74-1.85-1.22-2.35-3.13-2.82-5.09a22,22,0,0,0,.93-8,18.18,18.18,0,0,0,6-3.32c1.48-1.14,3-2.83,2.95-4.8C164,158,157.46,157,155,156.72A11.56,11.56,0,0,0,147.48,158.45Z" transform="translate(-6.98 -7.97)"/><path class="cls-6" d="M154,192.8c-1.22-.52-2.78.06-4.09.08a19.47,19.47,0,0,1-4.85-.76c-.73-.18-1.37.82-.65,1.27a11,11,0,0,0,5.34,1.48c1.48.07,3.55.1,4.53-1.2A.58.58,0,0,0,154,192.8Z" transform="translate(-6.98 -7.97)"/><path class="cls-14" d="M145.38,120.67a56.07,56.07,0,0,0,7.72-1.31c1.81-.44,4.25-.83,5.72-2.07.25-.21.13-.73-.24-.72-1.73.09-3.52,1-5.2,1.42a55.44,55.44,0,0,1-7.09,1.37,40,40,0,0,1-13.54-.45c-.05,0-.09,0,0,.08C136.27,121.34,141.27,121.05,145.38,120.67Z" transform="translate(-6.98 -7.97)"/><path class="cls-6" d="M139.38,223a.06.06,0,0,0-.08.09,35.39,35.39,0,0,1,2.39,3.54,7.61,7.61,0,0,1,.88,2.37,7.27,7.27,0,0,0,.28,1.75.35.35,0,0,0,.59,0c.91-1.19,0-3.09-.57-4.23A9.51,9.51,0,0,0,139.38,223Z" transform="translate(-6.98 -7.97)"/><path class="cls-6" d="M222.71,310.64c-.07,0-.13.08-.07.12,2.75,1.56,3.49,8.63,3.32,12.79-.21,5.4-2.14,8.28-5.35,12.25-.31.4.18.88.59.69C231.45,331.73,227.71,312.17,222.71,310.64Z" transform="translate(-6.98 -7.97)"/><path class="cls-6" d="M175.89,291.94c-1.77,3.25-3,6.66-5.34,9.55a9.36,9.36,0,0,0-2.18-4.55.62.62,0,0,0-1.08.37,5.73,5.73,0,0,1-1.27,3.82c-.8,1-2,1.64-2.78,2.69-.35.49.21,1,.7.81a7.87,7.87,0,0,0,4.42-5.59,6.72,6.72,0,0,1,1.1,3.88c0,.46.59.88,1,.47a28.08,28.08,0,0,0,6-11.18C176.54,291.89,176.07,291.61,175.89,291.94Z" transform="translate(-6.98 -7.97)"/><path class="cls-15" d="M97.18,151.25a150.75,150.75,0,0,1,20.27,6.28c3.79,1.47,8.28,2.83,11.47,5.42l0,0c-1.86-1.33-4.23-1.91-6.35-2.73s-4.46-1.68-6.72-2.46c-9.77-3.35-26.12-7-35.88-8.76-1.64,3-2.88,6.1-4.39,9.38,16.32-.82,24.72.08,39.48,2.88,3.85.73,8.32,1.31,11.77,3.2l0,0c-1.93-.9-4.11-1-6.19-1.44-2.36-.45-4.71-.89-7.08-1.26-12.1-1.89-26.37-2.39-38.46-2.34-2,4.25-4.31,8.45-7.5,11.68A19.93,19.93,0,0,0,70.41,170c.44-.22,11.22-7.69,8.09-3.42-.69.94-1.42,1.35-1.68,2.43a140.75,140.75,0,0,1,22.47-2.44c5.12-.24,10.25-.31,15.36-.06,4.13.2,8.84.1,12.73,1.54v0c-2.21-.66-4.65-.48-7-.59s-4.86-.19-7.29-.22c-13.67-.14-22.89.92-36.61,2.9a45.2,45.2,0,0,1-5.32,12.62l1.74-.86c2.55-1.26,4.65-3,7.07-4.49,2.95-1.76,1.78.18.95,1.09A8.24,8.24,0,0,1,78.85,181a32.34,32.34,0,0,1-1.21,11.16,39.44,39.44,0,0,1,4.89-1.38c1.41-.28,9.84-.3,7.58.79-4.61,2.2-1.19-.6-5.5,4.2,5.34.19,9,1.83,13.62,4.08.24.12.5.24.77.35,22.73,8.34,31.66,13.71,57.36,11.09,12.33-1.26,35.77-16.52,46.15-5.95.46-.89-2.89-10.19-3.09-11.87a5.37,5.37,0,0,1-.21-.56.51.51,0,0,1,.85-.55c.21,0,3.66,4.59,4.09,5s.67.63,1.07,1a21.68,21.68,0,0,1,0-2.77,15.08,15.08,0,0,1,1.14-5.69,23.17,23.17,0,0,1-2.77-3c-1.59-2.57,8.51,4.43,9.13,4.66-.58-4-.45-8.18-1-12.37-3.43-.83-6.88-1.59-10.37-2.23a192,192,0,0,0-21.6-2.72c-2.11-.16-4.24-.59-6.36-.23v0a25,25,0,0,1,6.41-.29c10.1.16,21.92,2,31.75,4.25a57.31,57.31,0,0,0-1.72-7.9c-2.28-.19-4.56-.34-6.85-.43a195.35,195.35,0,0,0-22.06.32c-2.12.14-4.31,0-6.36.68l0-.05c3.73-1.45,8.25-1.48,12.18-1.73a172.54,172.54,0,0,1,22.74,0,46.35,46.35,0,0,0-2.86-6.74c-2.18.22-4.36.47-6.53.77A198.73,198.73,0,0,0,178.83,167c-2.08.51-4.27.77-6.19,1.79l0,0a21.27,21.27,0,0,1,5.55-2.14c2.45-.71,4.91-1.42,7.39-2A174,174,0,0,1,206,161c-1.24-2.41-2.56-4.79-3.74-7.24-.77-1.58-1.53-3.17-2.26-4.76h0c-.15-.3-.39-.71-.62-1.11l.12,0c-.16-.35-.32-.71-.47-1.06-.95-2.17-3.42-7.33-3.34-9.41a52.3,52.3,0,0,1,1.06-5.49,6.61,6.61,0,0,0-1.93.88.85.85,0,0,1-1.37-.92c.84-2.4,2.09-4.62,3.06-7a24.15,24.15,0,0,0-6.51,4.2,1,1,0,0,1-1.58-1.06c.89-3.64,1.9-4.94,3.41-8a119.17,119.17,0,0,1,6.57-11.58c2.05-3.14,4.28-6.52,7.19-9,1.43-1.19,3-2.16,4.61-1.36-1.9-1.86-6.19.13-8.09,1.07-6.89,3.43-12.71,10.58-19.05,12.59a18.78,18.78,0,0,1-12.75-.13,7.35,7.35,0,0,0-1.63,2.11c-.61,1.22-2.58.63-2-.71a14.62,14.62,0,0,1,4.56-5.94c-8.2-1.55-10.8,3.75-13.51,6a.7.7,0,0,1-.89-1c1.82-3.25,5.72-5.25,7.86-9.1a50.48,50.48,0,0,1-9.72,2.16.66.66,0,0,1-.2,0,14.94,14.94,0,0,1-5.35,4.57,1.06,1.06,0,0,1-.92-1.91c4.27-2.59,9.12-8.66,8.65-14.06A27.5,27.5,0,0,1,151.55,98a96.24,96.24,0,0,1-11.45,5.83c-1.09.47-16.09,6.91-17.52,7.13-4.36.67-4.1-.24-7.13-3.17-5.09-4.92-10.86-14.81-19.82-18.92,7.22,7.06,11.54,19.25,13.15,28.48a.94.94,0,0,1-1.43,1,20,20,0,0,0-5.21-2.75,47.36,47.36,0,0,1,2.36,5.53.87.87,0,0,1-.4,1.13c-3.26,1.22-9.4,6.21-11.54,8.61l-.06.15a1.07,1.07,0,0,1-.51.5A93.54,93.54,0,0,0,86.35,139c-2.07,3-4.09,5.89-5.85,9a152,152,0,0,1,15.7,3c0-.06,0-.12,0-.17l.21.11.81.2-.09.1ZM133,178.47c-.83-3.09.58-7,3.94-7.88.92-.24,1.24.9.71,1.48-1.9,2.07-3.6,4.09-2,6.91s5,4,8.15,3.77c3.58-.2,6.92-1.63,8.22-5.22.95-2.62.9-5.36,1.44-8-3-1.62-10.83-7.61-6-11.05a11.56,11.56,0,0,1,7.51-1.73c2.47.23,9,1.24,9.11,4.66.09,2-1.47,3.66-2.95,4.8a18.18,18.18,0,0,1-6,3.32,22,22,0,0,1-.93,8c.47,2,1,3.87,2.82,5.09,2.08,1.39,4.94,2.38,7.48,1.74a6.79,6.79,0,0,0,4.93-4.21,4.44,4.44,0,0,0,0-3,8.22,8.22,0,0,1-1-2.38c0-.4.26-.91.73-.83,2.81.48,3.26,4.77,2.44,7a9,9,0,0,1-6.23,5.53c-4.9,1.18-10.84-1.5-12.45-6.07-.05.08-.1.17-.16.25-2.55,3.6-7.51,5-11.69,4.27-3.56-.61-7.11-2.67-8.11-6.37Zm16.89,14.41c1.31,0,2.87-.6,4.09-.08a.58.58,0,0,1,.28.87c-1,1.3-3,1.27-4.53,1.2a11,11,0,0,1-5.34-1.48c-.72-.45-.08-1.45.65-1.27A19.47,19.47,0,0,0,149.86,192.88Z" transform="translate(-6.98 -7.97)"/><path class="cls-16" d="M140.42,191.05a24.36,24.36,0,0,0,3.8,1.36.63.63,0,0,0,.14,1,11,11,0,0,0,5.34,1.48c1.48.07,3.55.1,4.53-1.2a.49.49,0,0,0,.08-.46c.92-.08,1.82-.19,2.72-.32,5.3-.81-3.12,6.08-9.1,6.66S134.93,189.9,140.42,191.05Z" transform="translate(-6.98 -7.97)"/><path class="cls-10" d="M175.27,173.86a11.63,11.63,0,0,0-2,.14v0a12.36,12.36,0,0,1,2-.3,17.28,17.28,0,0,0-.1-2.94c0-.11,0-.21,0-.32l-.66.19,0-.05.66-.23a11.27,11.27,0,0,0-.6-2.28,10.61,10.61,0,0,0-1.88.77l0,0a12.43,12.43,0,0,1,1.82-.92c-2.78-6.86-12.5-11.6-26.06-11.7-10.13,1.49-21.6,6-19.19,17,1.31,6,4.58,9.1,8.11,10.45a8.21,8.21,0,0,1-4.33-5.11c-.83-3.09.58-7,3.94-7.88.92-.24,1.24.9.71,1.48-1.9,2.07-3.6,4.09-2,6.91s5,4,8.15,3.77c3.58-.2,6.92-1.63,8.22-5.22.95-2.62.9-5.36,1.44-8-3-1.62-10.83-7.61-6-11.05a11.56,11.56,0,0,1,7.51-1.73c2.47.23,9,1.24,9.11,4.66.09,2-1.47,3.66-2.95,4.8a18.18,18.18,0,0,1-6,3.32,22,22,0,0,1-.93,8c.47,2,1,3.87,2.82,5.09,2.08,1.39,4.94,2.38,7.48,1.74a6.79,6.79,0,0,0,4.93-4.21,4.44,4.44,0,0,0,0-3,8.22,8.22,0,0,1-1-2.38c0-.4.26-.91.73-.83,2.81.48,3.26,4.77,2.44,7a8.79,8.79,0,0,1-1.5,2.56A11.77,11.77,0,0,0,175.27,173.86Z" transform="translate(-6.98 -7.97)"/><path class="cls-8" d="M100.24,166.49c4.8-.2,9.61-.24,14.41,0,1.75.09,3.6.12,5.45.23a19.85,19.85,0,0,0-6.93-3.18c-6.3-1.61-12-.28-12.93,3Zm20.81,1-.63,0q-3.65-.18-7.29-.22c-4.75-.05-9,.05-13,.28.14,3.13,4.43,6.6,10.25,8.08,6.38,1.64,12.19.26,13-3.08C123.71,170.9,122.82,169.1,121.05,167.49Z" transform="translate(-6.98 -7.97)"/><path class="cls-8" d="M197.87,176.35c-6.2-1-11.66-1.63-18.19-2.12l-.27,0c-2.86,1.25-4.65,3-4.54,4.86.2,3,5.54,5,11.93,4.48s11.42-3.43,11.23-6.46a2.65,2.65,0,0,0-.16-.73Zm-17.13-2.66a22.51,22.51,0,0,1,5.36-1.09c5-.43,9.31.69,11.08,2.64A138.83,138.83,0,0,0,180.74,173.69Z" transform="translate(-6.98 -7.97)"/><path class="cls-17" d="M211.87,181.08c-.06-.63-.13-1.26-.22-1.9-3.43-.83-6.88-1.59-10.37-2.23l-.27,0c-.25.85,5.43,2.76,10.86,4.18Zm-9.55-5a50.73,50.73,0,0,1,8.46-2c.27,1.27.5,2.56.69,3.84-2.91-.66-6-1.28-9.15-1.84Zm8.3-2.75c-.26-1.11-.54-2.22-.87-3.31-2.28-.19-4.56-.34-6.85-.43-1.66-.07-3.26-.12-4.82-.14-1.6,1.11,1,2.83,7.37,3.28a39.91,39.91,0,0,1,5.17.6Zm-9.2-4.83c2.62.06,5.26.18,8,.35l-.32-.94a75.68,75.68,0,0,0-7.64.59Zm6.61-3.2c-.45-1-.94-2.07-1.51-3.19-2.18.22-4.36.47-6.53.77s-4,.6-6,.92a7.45,7.45,0,0,0,2,.43c4.13.52,8.88.87,12,1.07Zm-14.15-2.45c1.23-1,5.83-2.28,11.18-3.55.31.58.61,1.16.91,1.74C201.84,161.53,197.86,162.11,193.88,162.85Z" transform="translate(-6.98 -7.97)"/><path class="cls-18" d="M97.18,151.25c2.73.68,5.21,1.32,7.68,2-2.26-3.39-7.44-8.93-16.83-16.65q-.86,1.2-1.68,2.4c-1.18,1.7-2.34,3.37-3.45,5.07,3,2,6.33,4.08,9.42,6,1.3.29,2.59.58,3.88.9,0-.06,0-.12,0-.17l.21.11.81.2-.09.1Zm8.57,3.54c1.12,2.28.26,3-1.77,2.15a79.8,79.8,0,0,1-8.08-4.6c3.31.77,6.67,1.6,9.85,2.45Zm-25.42-5.68c5.61,2.35,14.41,6.31,18.62,9.68a125.37,125.37,0,0,0-15.56-.64c-2.32-.93-4.55-1.88-6.49-2.72,1-2.19,1.91-4.3,3-6.39l.39.07Zm-3.59,6.67c-.38.87-.77,1.75-1.19,2.64,1.94-.09,3.77-.17,5.51-.22-1.46-.86-2.94-1.68-4.32-2.42Zm23.86,4.58c-4.44-.35-9-.58-13.39-.71,7.29,2.75,14.2,4.74,14.14,2.34a2.83,2.83,0,0,0-.75-1.63Zm-17.31-.81c4.2,2.63,7.66,5.34,6.94,6.81-.84,1.73-8.8-1-16.5-4.16q.69-1.35,1.32-2.7C77.71,159.49,80.47,159.5,83.29,159.55Z" transform="translate(-6.98 -7.97)"/><path class="cls-8" d="M93.47,127.38a29.4,29.4,0,0,1,9.18-6.42,40.38,40.38,0,0,0-3-6.28.91.91,0,0,1,.87-1.29,13.89,13.89,0,0,1,6,2.18,64.89,64.89,0,0,0-5.3-15.33A54.82,54.82,0,0,0,91.62,87a34,34,0,0,0-1.24,10,116.65,116.65,0,0,0,.92,14c.48,4.22,1.11,8.43,1.53,12.66a35.64,35.64,0,0,1,.32,4Z" transform="translate(-6.98 -7.97)"/><path class="cls-8" d="M198.59,111.64a130.29,130.29,0,0,0-7.24,13.88c.8-.57,6-4.06,7.33-2.87l.33,0a7.88,7.88,0,0,1-.47,2.08c-.8,2-1.83,3.84-2.71,5.77a16,16,0,0,0,1.62-.6c.51-.23,1.31.13,1.17.78s-.3,1.21-.46,1.81c-1.37,2.32-.19,8.85,1.29,11.3.55-7.15,6.58-17.72,8.72-24.38a69.4,69.4,0,0,0,2.73-12.87c.71-5.76.2-11.17-6-4.07A61.89,61.89,0,0,0,198.59,111.64Z" transform="translate(-6.98 -7.97)"/><path class="cls-12" d="M186.06,203.73c-11.53,4.34-17.81,8.23-32.13,10.68-10.74,1.83-28.84.32-51.68-11.14l-.56.1a8,8,0,0,0,1.72,3.94,23.47,23.47,0,0,0,5.3,5.18c8.72,5.92,12.12,6.66,18.51,8.34,3.73-2.72,9.37-5,13.68-3.1a12.52,12.52,0,0,1,4.95,4.12c9.05.89,17.87-2,25.68-6.65a76.19,76.19,0,0,0,10.24-7.35C183.18,206.64,184.56,205,186.06,203.73Z" transform="translate(-6.98 -7.97)"/><path class="cls-15" d="M172.38,222.94a67.07,67.07,0,0,1-8.78,3.53.09.09,0,0,1-.08-.16c2.65-1.28,5.21-2.9,7.8-4.33a51.87,51.87,0,0,0,8-5.23,32.21,32.21,0,0,0,6.44-6.75,26,26,0,0,0,2.91-6c-1.35,2.23-4,4.13-5.89,5.66a76.55,76.55,0,0,1-10.82,7.6c-7.54,4.33-16.46,7.72-25.08,6.15,2.51,4.37,3.54,10.4,3.65,15.41.06,2.24.33,5.16-.74,7.21l-.06.08c-1.41,2.28-6.7,1.8-8.87,1.67-1.93-.12-3.84-.32-5.75-.63a23.29,23.29,0,0,1-2.42-.39,3.7,3.7,0,0,1-2.6-.06,3.8,3.8,0,0,1-1.25-.83,13.11,13.11,0,0,1-3.17-.69,22.8,22.8,0,0,1-4.8-1.62c-1.4-.71-3.32-1.76-3.6-3.41-.65-2.55,1-6.2,2-8.41,1.7-3.69,2.78-5.85,5.82-8.62-4.77-.76-12.13-4.6-16.37-7.84a65,65,0,0,0-7.11,22.84c8.69,5.4,12.63,15.13,14,21.34,2.63,12-4.57,21.21-7.42,33.36a.85.85,0,0,1-.06.17c.39,1.52.79,3,1.21,4.54a131.5,131.5,0,0,0,4.49,13.62c4.68,11.64,10.07,12.31,20.92,11.63,1.78-.11,3.56-.28,5.34-.49a19.3,19.3,0,0,1-.52-4.2c-.27-2.59-.51-5.19-.76-7.79-1.16-12.42-2.62-22.31-4.71-34.46-.42-2.49-.89-5-1.54-7.43-.14-.5-.25-1-.37-1.55a30,30,0,0,1-1.92-2.42c-1.53-2.14-2.83-4.87-4.66-6.74-.41-.42.27-1,.68-.6a36.19,36.19,0,0,1,3.08,2.73c2.36,2.73,4.51,6.33,7.55,8.18a8,8,0,0,0,9.39-.53c3-2.18,5.31-5.06,7.74-7.8,1.58-1.79,4.26-5.6,6.91-5.62a.6.6,0,0,1,.53.8c-.6,1.44-2.44,2.73-3.51,3.86s-2.24,2.47-3.34,3.72a102.15,102.15,0,0,0-2,10.94c-1.4,12.05-1.94,23.41-2.42,35.51-.15,3.9,0,8-.51,11.87,4.59-.87,9.13-1.89,13.69-2.89,2.26-.49,4.57-.88,6.83-1.44A190.92,190.92,0,0,0,181,290c1.59-4.67,3.1-9.37,4.81-14,1.49-4,2.67-3.47,5-7.09.11-.17.43-.08.39.14-.77,4.43-2.44,3.91-3.75,8.22-1.45,4.73-3,9.43-4.58,14.11a202.34,202.34,0,0,1-9.63,24.19l21.23-9.87c.56-.26-.83-3.17-1-3.95a34.52,34.52,0,0,1-1.06-6.39c-.6-8.31,4.17-32.45,18-27.35.49.18.64,1,.06,1.24-13.1,4.66-16.54,12.17-15.17,26.24a32.63,32.63,0,0,0,1.07,6c.3,1,.8,2,1.1,3l.22-.1c7.52-3,16.49-4.93,24-1.08,12,6.21,13.23,24.23,5.3,34.5-5.41,7-15.28,11-23.46,13.67,20.56-1,33.56.48,39.22-.44,10.75-1.75.89-2.33,1.49-12.38a27.31,27.31,0,0,1-2.72.56c-1.06.16-1.68-1.37-.61-1.83,4.47-1.93,9-3.71,13-6.61a44.06,44.06,0,0,0,10.85-11.46c-14.82-3.6-27.92-46,6.42-47.37-2.89-9.64-8.6-18.65-20.71-25.74-1.84,6.41-9.55,14.48-14.18,19.06C230.32,271,224,277,216.93,281.32c-1.08.66-1.91-.75-1.42-1.64,3.91-7,8-13.93,11.46-21.18,3.18-6.61,6.29-13.56,7.5-20.82l-4.89-2.36a28.23,28.23,0,0,1-4.83,6.88A172.9,172.9,0,0,1,205.27,261a34.11,34.11,0,0,1-6.29,4.61,1.18,1.18,0,0,1-1.63-1.45c5.26-12.42,11.25-24.74,15.49-37.54h0c-1.65-1-3.27-2-4.85-3.15a35.19,35.19,0,0,1-4.85,7.77c-5.12,6.89-13.81,16.75-20.49,22.07-1.93,1.54-4.72,4-7.37,3.74a1.15,1.15,0,0,1-.85-1.79,205.43,205.43,0,0,0,13.16-27.42c1.67-4.17,3.28-8.36,4.63-12.64.49-1.57.82-3.22,1.39-4.76a10.31,10.31,0,0,0,.72-2.93,13.31,13.31,0,0,1-.39-3.11,28.31,28.31,0,0,0-3.51-.52c-1.41,5.4-5.49,10.28-9.75,13.67a54.73,54.73,0,0,1-8.3,5.41Zm-4,74a9.36,9.36,0,0,1,2.18,4.55c2.32-2.89,3.57-6.3,5.34-9.55.18-.33.65-.05.55.27a28.08,28.08,0,0,1-6,11.18c-.38.41-1,0-1-.47a6.72,6.72,0,0,0-1.1-3.88,7.87,7.87,0,0,1-4.42,5.59c-.49.19-1.05-.32-.7-.81.78-1.05,2-1.65,2.78-2.69a5.73,5.73,0,0,0,1.27-3.82A.62.62,0,0,1,168.37,296.94Z" transform="translate(-6.98 -7.97)"/><path class="cls-16" d="M113.72,310.9l.09.24c4.68,11.64,10.07,12.31,20.92,11.63,1.78-.11,3.56-.28,5.34-.49a19.3,19.3,0,0,1-.52-4.2c-.27-2.59-.51-5.19-.76-7.79-1.16-12.42-2.62-22.31-4.71-34.46-.42-2.49-.89-5-1.54-7.43-.14-.5-.25-1-.37-1.55a30,30,0,0,1-1.92-2.42c-1.53-2.14-2.83-4.87-4.66-6.74-.41-.42.27-1,.68-.6a36.19,36.19,0,0,1,3.08,2.73c2.36,2.73,4.51,6.33,7.55,8.18a8,8,0,0,0,9.39-.53c3-2.18,5.31-5.06,7.74-7.8,1.58-1.79,4.26-5.6,6.91-5.62a.6.6,0,0,1,.53.8c-.6,1.44-2.44,2.73-3.51,3.86s-2.24,2.47-3.34,3.72a102.15,102.15,0,0,0-2,10.94c-1.4,12.05-1.94,23.41-2.42,35.51-.15,3.9,0,8-.51,11.87,4.59-.87,9.13-1.89,13.69-2.89,2.26-.49,4.57-.88,6.83-1.44A190.92,190.92,0,0,0,181,290c1.59-4.67,3.1-9.37,4.81-14,1.49-4,2.67-3.47,5-7.09.11-.17.43-.08.39.14-.77,4.43-2.44,3.91-3.75,8.22-1.45,4.73-3,9.43-4.58,14.11a202.34,202.34,0,0,1-9.63,24.19l21.23-9.87c.56-.26-.83-3.17-1-3.95a34.52,34.52,0,0,1-1.06-6.39c-.41-5.75,1.74-19,7.67-25-2.64-.33-5.45-1.13-6.21-3.07-1.52-3.9-4.35-.46-11.3,13.33S170.71,296,170.71,296l-2.37-7.12-4.29,7.35c-4.29,7.35-6.6,8-4.36-11a200.55,200.55,0,0,1,7.63-35.37,65.14,65.14,0,0,0-21.11,9.88c-10.72,7.57-21-5.06-24.22-6.21s-.69.23,2.81,8.73c4,9.84,12.65,58.6-11.08,48.71Zm91.15-39.21c-1.28,4.42-5,19.54,1.91,24,8.15,5.29,30.51,1.84,32.66,19.76,1.2,10,9.12,12.21,19.72,10.57a41.8,41.8,0,0,1-5.36,4.64c-4,2.9-8.53,4.68-13,6.61-1.07.46-.45,2,.61,1.83a27.31,27.31,0,0,0,2.72-.56c-.6,10.05,9.26,10.63-1.49,12.38-5.66.92-18.66-.6-39.22.44,8.18-2.69,18.05-6.66,23.46-13.67,7.93-10.27,6.71-28.29-5.3-34.5-7.46-3.85-16.43-2-24,1.08l-.22.1c-.3-1-.8-2-1.1-3a32.63,32.63,0,0,1-1.07-6c-1.15-11.83,1.1-19,9.63-23.78Zm-36.5,25.25a9.36,9.36,0,0,1,2.18,4.55c2.32-2.89,3.57-6.3,5.34-9.55.18-.33.65-.05.55.27a28.08,28.08,0,0,1-6,11.18c-.38.41-1,0-1-.47a6.72,6.72,0,0,0-1.1-3.88,7.87,7.87,0,0,1-4.42,5.59c-.49.19-1.05-.32-.7-.81.78-1.05,2-1.65,2.78-2.69a5.73,5.73,0,0,0,1.27-3.82A.62.62,0,0,1,168.37,296.94Z" transform="translate(-6.98 -7.97)"/><path class="cls-9" d="M143.18,242a35.26,35.26,0,0,0-8.71-2.66c1.05,1.13,1.18,3.37.84,4.69a3.86,3.86,0,0,1-.71,1.38,41.61,41.61,0,0,0,5.87.55,24.36,24.36,0,0,0,6.6-.42A7.34,7.34,0,0,0,143.18,242Z" transform="translate(-6.98 -7.97)"/><path class="cls-7" d="M133.91,243a3.6,3.6,0,0,0-.25-1.92c-.34-.69-1.16-1.38-1-2l-.2,0a.7.7,0,0,1-.5.82c-1.29.36-2.41.83-2.6,2.35-.15,1.17.22,2.75,1.63,2.92A2.51,2.51,0,0,0,133.91,243Z" transform="translate(-6.98 -7.97)"/><path class="cls-7" d="M123.74,237.05a38.13,38.13,0,0,1,10.93.51,33.21,33.21,0,0,1,10.45,3.35,11,11,0,0,1,3.1,2.48c.05-1.44.27-2.93.23-4.3-4.56-1.46-8.87-3.5-13.57-4.62s-9.85-1.73-14.66-.39c-.48,1.1-.92,2.2-1.3,3.33-.21.63-.35,1.27-.56,1.89C119.42,237.67,122,237.23,123.74,237.05Z" transform="translate(-6.98 -7.97)"/><path class="cls-7" d="M120.87,232.63c4.32-1.34,9.1-.79,13.4.14a55,55,0,0,1,14.1,4.77,39,39,0,0,0-.86-6.2c-1-4.18-2.81-9.56-7-11.47-3.78-1.7-7.77-.61-11,1.67a.24.24,0,0,1-.18.14,18.48,18.48,0,0,0-3.15,2.9,36.55,36.55,0,0,0-5.25,8Zm18.43-9.51a.06.06,0,0,1,.08-.09,9.51,9.51,0,0,1,3.49,3.55c.59,1.14,1.48,3,.57,4.23a.35.35,0,0,1-.59,0,7.27,7.27,0,0,1-.28-1.75,7.61,7.61,0,0,0-.88-2.37A35.39,35.39,0,0,0,139.3,223.12Z" transform="translate(-6.98 -7.97)"/><path class="cls-9" d="M130.11,238.75a34.71,34.71,0,0,0-5.67-.18c-1.65.1-4.65.21-5.7,1.81a.57.57,0,0,1-.11.11c1.09,1.3,3.16,1.88,4.69,2.32l4.43,1.09A4.64,4.64,0,0,1,130.11,238.75Z" transform="translate(-6.98 -7.97)"/><path class="cls-18" d="M112.5,257.23c-1.41-4.76-3.27-8.64-11.12-17-.08,1-.15,2-.19,3-.62,17.25,1.08,24.73,4.45,39.52a.75.75,0,0,1,.15.67q.6,2.6,1.23,5.19C111.82,273.32,115,265.59,112.5,257.23Z" transform="translate(-6.98 -7.97)"/><path class="cls-16" d="M134.77,269.31c.52,1.82.85,3.69,1.2,5.36a297.31,297.31,0,0,1,5,35.16c.26,2.69.51,5.39.8,8.07a24.48,24.48,0,0,1,.47,4.1c1.7-.24,3.4-.52,5.1-.82,0-4.4.4-8.83.57-13.22.49-12.45,1-23.84,2.72-36.22.28-2,.61-4.08,1.08-6.09a21.57,21.57,0,0,1-6.1,4.9,9.83,9.83,0,0,1-10-.65C135.31,269.71,135,269.52,134.77,269.31Z" transform="translate(-6.98 -7.97)"/><path class="cls-18" d="M208.66,243.78c-2.44,5.91-5,11.77-7.57,17.64,1-.79,2-1.65,2.93-2.43a168.64,168.64,0,0,0,18.83-18.08,29.6,29.6,0,0,0,4.67-6.59c-4.67-2.27-9.43-4.61-13.9-7.25a16,16,0,0,1-1.06,6.34C211.43,236.92,210.08,240.37,208.66,243.78Z" transform="translate(-6.98 -7.97)"/><path class="cls-18" d="M182.48,250.48a137.64,137.64,0,0,0,19-20.82c1.68-2.3,3.7-4.81,4.65-7.55-4.24-3.2-9-7.43-11.1-12.41a24,24,0,0,1-.93,5.71,121.47,121.47,0,0,1-4.46,13.13,210.27,210.27,0,0,1-12,25.63A27.14,27.14,0,0,0,182.48,250.48Z" transform="translate(-6.98 -7.97)"/><path class="cls-18" d="M234.33,246.54a103.12,103.12,0,0,1-5.24,12.7c-2.86,5.92-6,11.72-9.26,17.44,1.31-1,2.58-2,3.83-3.06,6.69-5.52,14.92-13.2,20.17-20,1.92-2.51,4.13-5.26,5-8.37-4.16-2.45-8.46-4.65-12.8-6.77A30.55,30.55,0,0,1,234.33,246.54Z" transform="translate(-6.98 -7.97)"/><path class="cls-18" d="M271.91,273.93c-25.7,0-25.35,30.12-6.17,43.57C274.33,303.22,278.11,290.36,271.91,273.93Z" transform="translate(-6.98 -7.97)"/><path class="cls-15" d="M221.43,339.79c11.51-8.93,10.32-29.3-1.33-34.59-11.84-5.38-28.85,5.67-40.25,10.25-11.13,4.48-23.67,7.37-35.45,9.18-15.27,2.34-23.54,1.79-30.19-2.36-6.92-4.32-11.87-12.28-9-11.52,1.78.47.47,0,7.56,6.69,2.28,2.16,1.13.31.13-2.44-1.66-4.59-4.92-12.71-5.93-16.37-1.11-4-2.32-9.13-3.33-13.47-.62-2.7-.43-2-2.79,0-20,16.32-17.14,38.62-2.4,53.83,19.58,20.21,51.44,19.94,77.52,15.34,15.3-2.69,34.38-7,43.11-12.84.8-.54,1.58-1.1,2.33-1.68Zm1.21-29c-.06,0,0-.14.07-.12,5,1.53,8.74,21.09-1.51,25.85-.41.19-.9-.29-.59-.69,3.21-4,5.14-6.85,5.35-12.25C226.13,319.39,225.38,312.32,222.64,310.76Z" transform="translate(-6.98 -7.97)"/><path class="cls-10" d="M155.51,158.69c2.53,0,4.45,1,4.44,1.84,0,2-9.11,1.61-9.07-.34C150.9,159.36,153,158.69,155.51,158.69Z" transform="translate(-6.98 -7.97)"/><path class="cls-18" d="M112.35,321c-9.19,5.6-12,13.34-12,19.84a53,53,0,0,0,9.86,7.21c.69-5.84,2.54-13.05,7.33-16.77a88.81,88.81,0,0,1,7.68-5.46,24.7,24.7,0,0,1-11-3.54C113.57,321.87,113,321.44,112.35,321Z" transform="translate(-6.98 -7.97)"/><path class="cls-18" d="M134.2,325.83c-8.12,7.74-10.51,20.56-8.63,28.31a87,87,0,0,0,15.87,2.48c-1.08-5.8-1.69-14.51,2.21-21.45,3.8-6.78,6.25-10.11,7.62-11.71-2.31.43-4.61.82-6.87,1.17C140.59,325.21,137.22,325.61,134.2,325.83Z" transform="translate(-6.98 -7.97)"/><path class="cls-18" d="M158.43,322c-2.42,11.64,0,28.08,4.85,34.12,4.33-.44,8.59-1.06,12.71-1.79l4.74-.86a49.39,49.39,0,0,1-8-22.64c-.51-6.78-.68-10.49-.7-12.52C167.55,319.73,163,321,158.43,322Z" transform="translate(-6.98 -7.97)"/><path class="cls-18" d="M183.74,313.76c-.33,15.36,3.43,30.47,7.77,37.44a146.56,146.56,0,0,0,18.78-5.43c-2.51-3.83-8.57-14.22-9.57-26.91-.48-6.11-.78-9.9-1-12.25C194.17,308.7,188.62,311.53,183.74,313.76Z" transform="translate(-6.98 -7.97)"/><path class="cls-18" d="M104.53,311.93a18.5,18.5,0,0,0-17.88,0,33.88,33.88,0,0,0,2.74,13.55c4.2-7.78,13.39-9.05,18-9.17A15.61,15.61,0,0,1,104.53,311.93Z" transform="translate(-6.98 -7.97)"/><path class="cls-18" d="M92.6,293.92a20.39,20.39,0,0,1,14.78,6c-.15-.49-.29-.93-.39-1.32-1.11-4-2.32-9.13-3.33-13.47-.62-2.7-.43-2-2.79,0A43.57,43.57,0,0,0,92.6,293.92Z" transform="translate(-6.98 -7.97)"/><path class="cls-6" d="M115.78,147.43l-.52-.37a18.72,18.72,0,0,1-2.75-2.88.88.88,0,0,1,.08-1.27.87.87,0,0,1,1.15,0,20.91,20.91,0,0,0,3.12,2.08,12.36,12.36,0,0,0,1.22.57,17.06,17.06,0,0,1,3-1.89,12.34,12.34,0,0,1,7.46-1.45c5.49.83,9.15,5.11,10.64,10.24a1,1,0,0,1-1.92.69c-1.81-3.68-5.27-7.51-9.76-7.29a9.77,9.77,0,0,0-5.32,2,13.53,13.53,0,0,0-1.67,1.63,8.2,8.2,0,0,1-3.16,2.44,1.65,1.65,0,0,1-2.06-1.64c-.54-.21-1.06-.45-1.58-.69a10.84,10.84,0,0,1-3.6-2.69.87.87,0,0,1,1-1.36c1.3.61,2.62,1.2,4,1.69Z" transform="translate(-6.98 -7.97)"/><path class="cls-6" d="M188.87,156.23a3.71,3.71,0,0,0,.95-.17c.79-.28,2.49-1.12,2.77-2a.57.57,0,0,1,.68-.36h0a.5.5,0,0,1,.32.28.48.48,0,0,1,0,.42c-.17.47-.15,1-.34,1.51a1.93,1.93,0,0,1-.33.57,5.16,5.16,0,0,1-2,1.55,11.83,11.83,0,0,1-2.26.7,2.31,2.31,0,0,1-.1.28c-.31.85-1.69,1.25-2,.24-1.31-3.93-2.48-8.22-7.54-8.08-3.9.1-6.78,2.81-9.34,5.48a.93.93,0,0,1-1.55-.92,12.63,12.63,0,0,1,11.15-8.27,8.77,8.77,0,0,1,6.53,2.82,11.2,11.2,0,0,1,1.75,2.39,7.17,7.17,0,0,0,.94-.23,6.75,6.75,0,0,0,2.27-1.22.36.36,0,0,1,.15-.1c.29-.13.57-.25.87-.36a.53.53,0,0,1,.59.15.83.83,0,0,1,.08,1,7.24,7.24,0,0,1-3.86,3.21A9.73,9.73,0,0,1,188.87,156.23Z" transform="translate(-6.98 -7.97)"/><path class="cls-6" d="M348.53,296.4a23,23,0,0,1,10.09,16.11c.92,6.83-1,14-4.65,20.38a56.28,56.28,0,0,1-17.14,18.24,71.36,71.36,0,0,1-27.13,11.19,85.41,85.41,0,0,1-34.79-.85c-10.53-2.37-20.7-6.53-28.73-13.33a41.1,41.1,0,0,1-13.09-19.46,34.62,34.62,0,0,1-.18-19.75c1.68-5.6,5.07-11,10.29-14.13,5.9-3.56,12.28-3.14,17.74-.67a42.82,42.82,0,0,1,12.12,8.15,93.4,93.4,0,0,1,7.69,8.82,49.18,49.18,0,0,0,6.81,7.17c8.95,7.38,22.6,10.58,34.83,5.37,7.57-3.23,15.61-8.35,19.5-16.08,1.1-2.18,2.28-5.8,2.07-8.16a3.2,3.2,0,0,1,1.49-2.91A2.72,2.72,0,0,1,348.53,296.4Z" transform="translate(-6.98 -7.97)"/><path class="cls-7" d="M346.75,298.79c27.77,19.2-9.84,73.63-70.9,59.93s-44.15-74.64-16.33-62c14.51,6.6,17.08,16.37,26.1,23.81,8.27,6.82,22.89,11.93,37.56,5.67C348.19,315.55,346.75,298.79,346.75,298.79Z" transform="translate(-6.98 -7.97)"/><path class="cls-11" d="M285.31,327l-.05,0,.05,0Zm-2-8.55c-.8-.77-1.55-1.57-2.27-2.38-5.86-6.58-9.77-14-21.53-19.35a16.11,16.11,0,0,0-12.67-.76,15.12,15.12,0,0,0-2.81,1.42c-6.56,4.19-10.49,13.41-9.55,23.59a35,35,0,0,0,.53,3.59c.21,1,.47,2.05.79,3.08a35.58,35.58,0,0,0,3.67,8.2c5.92,9.77,17.37,18.6,36.37,22.87.89.2,1.77.38,2.65.55a2.43,2.43,0,0,0,.16-1.65C277.4,353.37,259.37,342.89,267,347s21.32,6.2,17.07,2.15-12.1-10.39-7.69-9,4.48.92,6.49.84c2.52-.1,4.57-.69,5.27-1.52.46-.55.33-1.2-.63-1.88-1.23-.86-3.05-1.92-4.77-2.89l-2.39-1.34-.33-.18a18.56,18.56,0,0,1-2.13-1.27s0,0,0,0a3.68,3.68,0,0,1,.75.25c.41.15.91.32,1.48.5l.53.16c.71.21,1.49.43,2.3.63,4.05,1,8.77,1.61,8-.34-1-2.61-5.21-5.74-5.7-6.1a39.5,39.5,0,0,0,6.15,3c3.94,1.68,3-1.22-.83-6a38.49,38.49,0,0,1-3.6-2.34c-.48-.36-.94-.72-1.39-1.09h0l-.42-.35-.5-.44-.47-.42-.26-.24Z" transform="translate(-6.98 -7.97)"/><path class="cls-9" d="M300.25,352.2a85.26,85.26,0,0,1-15.52-1.32c-1.48,1.46-11.53-.52-17.69-3.85-7.67-4.14,10.36,6.34,11.62,10.59a2.43,2.43,0,0,1-.16,1.65c45.61,8.87,77.49-20.29,77.55-42.91C350,333.92,328.29,352.13,300.25,352.2Z" transform="translate(-6.98 -7.97)"/><path class="cls-19" d="M284.73,350.88A62.46,62.46,0,0,1,258,339.66q-2.12-1.61-4-3.35a44.55,44.55,0,0,1-10.07-13.66c-.4-.85-.76-1.71-1.1-2.58a35.48,35.48,0,0,1-1.74-20.3c-4.75,4.79-7.4,12.67-6.61,21.21a35,35,0,0,0,.53,3.59c.21,1,.47,2.05.79,3.08a35.58,35.58,0,0,0,3.67,8.2c5.92,9.77,17.37,18.6,36.37,22.87.89.2,1.77.38,2.65.55a2.43,2.43,0,0,0,.16-1.65C277.4,353.37,259.37,342.89,267,347,273.2,350.36,283.25,352.34,284.73,350.88Z" transform="translate(-6.98 -7.97)"/><path class="cls-6" d="M340.6,95.83a1.49,1.49,0,0,0,1.46.1c20.79-10.58,31.75-15.11,35.33-23.14,2.22-5,2.07-11.44-.11-15.18-4.71-8.08-17.85-9.75-29.38-.84-2.87-4.66-7.58-8.92-13-10.23a11.82,11.82,0,0,0-13.1,5.2c-11.08,15.77,18.69,44.08,18.78,44.09ZM323,55.53h0A9.48,9.48,0,0,1,333.58,49c6.07.91,10.5,6.43,12.93,11.75.61,1.32,2.57,1.4,2.76,0,6.3-7.24,22.82-10.44,25.66.46,4.83,18.48-21.71,26-33.79,31.86-6.88-7.33-16.58-18.49-18.45-27.85A18.78,18.78,0,0,1,323,55.53Z" transform="translate(-6.98 -7.97)"/><path class="cls-20" d="M341.14,93c12.08-5.86,38.62-13.38,33.79-31.86-2.84-10.9-19.36-7.7-25.66-.46-.19,1.4-2.15,1.32-2.76,0-2.43-5.32-6.86-10.84-12.93-11.75A9.48,9.48,0,0,0,323,55.53a18.78,18.78,0,0,0-.34,9.64C324.56,74.53,334.26,85.69,341.14,93Z" transform="translate(-6.98 -7.97)"/><path class="cls-6" d="M370.37,60.9c6.43,4.83-2,13.83-8.32,16.1a2.89,2.89,0,0,1-.73.27c-.45-.9,3.72-3.92,3.86-4.07C369.19,69,371.6,66.45,370.37,60.9Z" transform="translate(-6.98 -7.97)"/><path class="cls-6" d="M336.49,53c-4,1.06-5.81.93-9.9,3C325.68,52.19,334.69,49.65,336.49,53Z" transform="translate(-6.98 -7.97)"/><path class="cls-6" d="M71.2,105a1.28,1.28,0,0,0,1.13-.64c10.18-17.89,16.06-26.56,14.8-34.22-.79-4.75-4-9.44-7.46-11.13-7.4-3.67-17.89,1.48-22.06,13.65-4.38-2-9.92-2.89-14.54-1.23a10.42,10.42,0,0,0-7.13,10.2C35.43,98.61,71.14,105,71.2,105ZM38.67,83.81h0a8.38,8.38,0,0,1,4.58-10c4.92-2.27,10.87-.35,15.24,2.38,1.09.68,2.58-.21,2-1.34,1.12-8.4,11.74-18.78,19.14-12.13C92.2,74,76.3,92.46,70.24,102.65,61.6,100.59,49,97.07,43.1,91.09A16.75,16.75,0,0,1,38.67,83.81Z" transform="translate(-6.98 -7.97)"/><path class="cls-20" d="M70.24,102.65C76.3,92.46,92.2,74,79.67,62.74c-7.4-6.65-18,3.73-19.14,12.13.54,1.13-1,2-2,1.34-4.37-2.73-10.32-4.65-15.24-2.38a8.38,8.38,0,0,0-4.58,10,16.75,16.75,0,0,0,4.43,7.28C49,97.07,61.6,100.59,70.24,102.65Z" transform="translate(-6.98 -7.97)"/><path class="cls-6" d="M76.18,64.77c7.09.43,5.21,11.19,1.68,15.91-.17.22-.17.36-.4.55-.77-.44.84-4.69.87-4.87C79.25,71.34,79.78,68.27,76.18,64.77Z" transform="translate(-6.98 -7.97)"/><path class="cls-6" d="M47.37,75.41c-2.4,2.71-3.83,3.51-5.84,7C39,80.06,44.41,73.81,47.37,75.41Z" transform="translate(-6.98 -7.97)"/><path class="cls-6" d="M109.63,68.58a1.08,1.08,0,0,0,1.06,0c14.55-8.29,22.27-11.91,24.56-17.8,1.43-3.65,1.1-8.27-.59-10.88-3.66-5.64-13.13-6.39-21.11.39-2.21-3.25-5.73-6.15-9.65-6.9a8.49,8.49,0,0,0-9.23,4.17c-7.41,11.69,14.9,31,15,31Zm-14-28.32h0A6.8,6.8,0,0,1,103,35.18c4.38.45,7.75,4.26,9.67,8,.48.93,1.89.92,2-.09,4.27-5.41,16-8.26,18.43-.54,4.08,13.1-14.7,19.39-23.17,24-5.19-5-12.52-12.71-14.18-19.36A13.47,13.47,0,0,1,95.67,40.26Z" transform="translate(-6.98 -7.97)"/><path class="cls-20" d="M109.93,66.55c8.47-4.62,27.25-10.91,23.17-24-2.41-7.72-14.16-4.87-18.43.54-.09,1-1.5,1-2,.09-1.92-3.73-5.29-7.54-9.67-8a6.8,6.8,0,0,0-7.35,5.08,13.47,13.47,0,0,0,.08,6.93C97.41,53.84,104.74,61.52,109.93,66.55Z" transform="translate(-6.98 -7.97)"/><path class="cls-6" d="M129.81,42.51c4.78,3.25-1,10-5.42,11.83-.22.09-.27.19-.51.22-.36-.63,2.53-2.93,2.62-3.05C129.24,48.38,130.88,46.46,129.81,42.51Z" transform="translate(-6.98 -7.97)"/><path class="cls-6" d="M105.24,38c-2.8.9-4.13.87-7,2.5C97.46,37.78,103.84,35.65,105.24,38Z" transform="translate(-6.98 -7.97)"/><path class="cls-10" d="M255.84,126.85c2.47-.58,4.58,0,4.75.77.4,1.91-8.5,3.65-8.91,1.74C251.51,128.55,253.37,127.43,255.84,126.85Z" transform="translate(-6.98 -7.97)"/><path class="cls-6" d="M275,43.31a1,1,0,0,0,1.06,0c14.55-8.29,22.26-11.91,24.56-17.79,1.42-3.65,1.09-8.28-.59-10.88-3.66-5.64-13.14-6.4-21.11.38-2.21-3.24-5.74-6.14-9.65-6.9A8.5,8.5,0,0,0,260,12.32c-7.42,11.68,14.9,31,15,31ZM261,15h0a6.81,6.81,0,0,1,7.34-5.09c4.39.46,7.75,4.27,9.68,8,.48.93,1.89.92,2-.1,4.27-5.4,16-8.26,18.42-.53,4.09,13.1-14.7,19.39-23.16,24-5.19-5-12.53-12.71-14.18-19.36A13.33,13.33,0,0,1,261,15Z" transform="translate(-6.98 -7.97)"/><path class="cls-20" d="M275.3,41.28c8.46-4.61,27.25-10.9,23.16-24-2.41-7.73-14.15-4.87-18.42.53-.09,1-1.5,1-2,.1-1.93-3.73-5.29-7.54-9.68-8A6.81,6.81,0,0,0,261,15a13.33,13.33,0,0,0,.08,6.92C262.77,28.57,270.11,36.25,275.3,41.28Z" transform="translate(-6.98 -7.97)"/><path class="cls-6" d="M295.18,17.25c4.78,3.24-1,10-5.43,11.83a1.79,1.79,0,0,1-.51.22c-.35-.63,2.53-2.94,2.63-3.05C294.61,23.12,296.25,21.19,295.18,17.25Z" transform="translate(-6.98 -7.97)"/><path class="cls-6" d="M270.61,12.73c-2.81.9-4.14.87-7,2.5C262.83,12.51,269.2,10.38,270.61,12.73Z" transform="translate(-6.98 -7.97)"/></g></svg>