<svg id="OBJECTS" xmlns="http://www.w3.org/2000/svg" xmlns:xlink="http://www.w3.org/1999/xlink" viewBox="0 0 404.1 470.68"><defs><style>.cls-1{fill:none;}.cls-2,.cls-3{fill:#639595;}.cls-2{opacity:0.2;}.cls-4{fill:#272e41;}.cls-19,.cls-5,.cls-6{fill:#3b6772;}.cls-6{font-size:150.55px;}.cls-19,.cls-6{font-family:Oswald-Bold, Oswald;font-weight:700;}.cls-7{fill:#fffdec;}.cls-8{fill:#d67e5c;}.cls-9{fill:#94414b;}.cls-10{fill:#d67e76;}.cls-11{fill:#ce5e52;}.cls-12{fill:#cfa477;}.cls-13{fill:#c17365;opacity:0.37;}.cls-14{fill:#e8bc87;}.cls-15{clip-path:url(#clip-path);}.cls-16{fill:#db8483;}.cls-17{fill:#be402c;}.cls-18{fill:#e2dba9;}.cls-19{font-size:23.17px;}</style><clipPath id="clip-path" transform="translate(-6.31 -1.98)"><path class="cls-1" d="M221.19,342.25c-17,3.07-16.85,17.5-16.81,18.7l0-.05s-9.93-12-25.11-2.23-8.77,44.17,43,48.07l.2,0C257.6,368.53,239,339.05,221.19,342.25Z"/></clipPath></defs><path class="cls-2" d="M125,89.53s40.81-50.83,91.31-34c57.6,19.15,29.93,72,37.44,78.38s32-54.72,114.23,1.72c73,50.11-31.75,158.68-19.86,161.37s21.31-17.21,33.31,5.71C404.78,347.26,299.62,443.3,251,380.52c-37.1-47.87-7.54-16.84-61,6.77-37,16.32-98.6.44-139.78-47.66S68,199.91,68,199.91s-15,22.8-31.06,6.5c-35.09-35.6,3.79-97.79,45.86-128.35S137,70.4,125,89.53Z" transform="translate(-6.31 -1.98)"/><path class="cls-3" d="M261,406.24s32.19-50.57,56.7-67.7,74.22-33.23,82.32-42-.49,42.54-20.62,63.7-70.89,18-78.13,36.49S269.49,425.31,261,406.24Z" transform="translate(-6.31 -1.98)"/><path class="cls-4" d="M280.54,419S268.4,382.12,323.34,366c49-14.38,87.06,31.21,87.06,31.21s-24.28,17.06-47.08,11.91c-18.73-4.24-33.5-3.42-38.36,0S292.61,427.43,280.54,419Z" transform="translate(-6.31 -1.98)"/><path class="cls-5" d="M297.16,408s9.34-21.79,31.18-24,48.31,5.24,48.31,5.24-32.92-.54-48.31,0S297.16,408,297.16,408Z" transform="translate(-6.31 -1.98)"/><path class="cls-5" d="M295.26,357.55s-29.33-25.51,9.62-67.5c34.69-37.4,84.23-6.54,84.23-6.54s-9.25,18.27-27.83,23.13-30.53,14.21-32.95,19.63S309.92,358.58,295.26,357.55Z" transform="translate(-6.31 -1.98)"/><path class="cls-4" d="M303.88,339.57s-3.12-23.5,14.53-36.56S366,288.53,366,288.53s-31.94,10.65-44.89,19S303.88,339.57,303.88,339.57Z" transform="translate(-6.31 -1.98)"/><path class="cls-4" d="M297.16,378.15S303,361.93,316,353.58s49.36-18.84,55.7-26.42c0,0-1,7.08-10.34,12.08S321.17,352.9,311,363.45C302.56,372.25,297.16,378.15,297.16,378.15Z" transform="translate(-6.31 -1.98)"/><path class="cls-3" d="M155.75,406.24s-32.19-50.57-56.7-67.7-74.22-33.23-82.32-42,.49,42.54,20.61,63.7,70.89,18,78.14,36.49S147.22,425.31,155.75,406.24Z" transform="translate(-6.31 -1.98)"/><path class="cls-4" d="M136.17,419S148.31,382.12,93.36,366c-48.94-14.38-87,31.21-87,31.21s24.28,17.06,47.08,11.91c18.73-4.24,33.5-3.42,38.35,0S124.1,427.43,136.17,419Z" transform="translate(-6.31 -1.98)"/><path class="cls-5" d="M119.55,408s-9.34-21.79-31.19-24-48.3,5.24-48.3,5.24,32.92-.54,48.3,0S119.55,408,119.55,408Z" transform="translate(-6.31 -1.98)"/><path class="cls-5" d="M121.45,357.55s29.33-25.51-9.62-67.5c-34.69-37.4-84.24-6.54-84.24-6.54s9.26,18.27,27.84,23.13S86,320.85,88.38,326.27,106.79,358.58,121.45,357.55Z" transform="translate(-6.31 -1.98)"/><path class="cls-4" d="M112.83,339.57S116,316.07,98.3,303s-47.57-14.48-47.57-14.48,31.94,10.65,44.89,19S112.83,339.57,112.83,339.57Z" transform="translate(-6.31 -1.98)"/><path class="cls-4" d="M119.55,378.15s-5.85-16.22-18.88-24.57S51.31,334.74,45,327.16c0,0,1,7.08,10.34,12.08s40.23,13.66,50.38,24.21C114.15,372.25,119.55,378.15,119.55,378.15Z" transform="translate(-6.31 -1.98)"/><text class="cls-6" transform="translate(56.73 136.25) scale(1.21 1)">404</text><path class="cls-7" d="M230.18,308.64s-9.42-14.74,12.5-37C270,244,273.56,257.62,290.3,221h26s.52,71.67-8.1,87.67S230.18,308.64,230.18,308.64Z" transform="translate(-6.31 -1.98)"/><path class="cls-7" d="M288.54,113.39s-75.29,100.42,14.22,124.52c91.26,24.57,73.31-96.71,73.31-96.71l-17.21,28.12-63.34-13.44Z" transform="translate(-6.31 -1.98)"/><path class="cls-8" d="M267.16,216.89c-.87-.89-18.22-22-3.88-60.21a149.88,149.88,0,0,1,25.26-43.29l7,42.49,21,4.46S309.81,173,308.33,181c-4,21.53-17.78,17.59-26.85,24.3C268.08,215.19,292.31,242.35,267.16,216.89Z" transform="translate(-6.31 -1.98)"/><path class="cls-8" d="M343.64,238.6c5.09-1.33,36.1-15.7,39.11-56.39a150.07,150.07,0,0,0-4.77-49.9L353.82,168l-26.76-6.09s.78,16.35-1.82,25.95c-5.9,21.79,8.6,23.07,17,30.56C356.05,230.61,306,248.46,343.64,238.6Z" transform="translate(-6.31 -1.98)"/><path class="cls-4" d="M346.35,174.65a11.9,11.9,0,0,0,9.11,4.28c2-.06-2.35,3.85-6.23,2S346.35,174.65,346.35,174.65Z" transform="translate(-6.31 -1.98)"/><path class="cls-4" d="M293.82,163.11a11.88,11.88,0,0,1-10.06-.33c-1.71-.93.35,4.5,4.65,4.61S293.82,163.11,293.82,163.11Z" transform="translate(-6.31 -1.98)"/><circle class="cls-8" cx="333.79" cy="194.26" r="11.22"/><path class="cls-9" d="M360.57,171l15.51-20.71s3.37,15.08-.32,26.45Z" transform="translate(-6.31 -1.98)"/><path class="cls-8" d="M362,173s2.64-6.15,8.23-6.74l-6.07,6.7s4.27-4.22,8-2.71l-5.55,3.63Z" transform="translate(-6.31 -1.98)"/><circle class="cls-4" cx="333.79" cy="194.26" r="8.27"/><path class="cls-7" d="M342.53,192.26s1.35.91,1.12,1.78-.52,1.75-1.6,1.6a1.89,1.89,0,0,1-1.58-2A1.48,1.48,0,0,1,342.53,192.26Z" transform="translate(-6.31 -1.98)"/><path class="cls-7" d="M342.84,196.64s1.47-1,2-.92a1.26,1.26,0,0,1,.08,2.09C343.91,198.39,342.38,197.57,342.84,196.64Z" transform="translate(-6.31 -1.98)"/><circle class="cls-4" cx="282.51" cy="181.93" r="8.27"/><path class="cls-7" d="M291.25,179.94s1.36.91,1.12,1.78-.52,1.74-1.6,1.59a1.89,1.89,0,0,1-1.57-2.05A1.47,1.47,0,0,1,291.25,179.94Z" transform="translate(-6.31 -1.98)"/><path class="cls-7" d="M291.56,184.32s1.48-1,1.95-.93a1.27,1.27,0,0,1,.09,2.1C292.64,186.06,291.1,185.24,291.56,184.32Z" transform="translate(-6.31 -1.98)"/><path class="cls-4" d="M299.8,156.78s-2.06,15.36,7.29,18.17,8.35-3.88,13.49-2.71,4.18,3.16,9.81,5.3c11.09,4.21,17.57-9.62,18.28-10.75S299.8,156.78,299.8,156.78Z" transform="translate(-6.31 -1.98)"/><path class="cls-4" d="M350.49,235.65s-.17-19.16,7.13-20.08c16-2,7.67-12.8,21.09-13.89C378.71,201.68,373.38,222.63,350.49,235.65Z" transform="translate(-6.31 -1.98)"/><path class="cls-4" d="M257.77,181.22a6.89,6.89,0,0,1,6.59,6c1.19,6-3.56,10.46,1.66,13.32s11.54,4.73,4.08,19.24C270.1,219.74,256.15,212.09,257.77,181.22Z" transform="translate(-6.31 -1.98)"/><path class="cls-4" d="M312,197.44a43.92,43.92,0,0,1-1.28,4.75c-.52.52-10.38,7.17-9.65,7.28,4.72.69,10.35-5.18,10.35-5.18a15.24,15.24,0,0,0,6,9.54c2.27,1.56-4.63-11.33-4.63-11.33l1.32-4.68Z" transform="translate(-6.31 -1.98)"/><path class="cls-10" d="M307.48,191.49l13.1,3.11a10.86,10.86,0,0,1-6.83,6.09C309.1,201.91,307.48,191.49,307.48,191.49Z" transform="translate(-6.31 -1.98)"/><path class="cls-9" d="M289.53,154.53l-3.62-25.62s-10.22,11.59-12.46,23.33Z" transform="translate(-6.31 -1.98)"/><path class="cls-8" d="M287.37,155.58s.65-6.66-4-9.87l2.09,8.8s-1.71-5.76-5.69-6.22l3.11,5.85Z" transform="translate(-6.31 -1.98)"/><path class="cls-8" d="M284.44,232.77s4.07,28.29-24.88,30.54c-18.07,1.41-30.76,35.15-30.3,29.21C232.84,246.81,274.85,249.7,284.44,232.77Z" transform="translate(-6.31 -1.98)"/><path class="cls-8" d="M271.18,308.64s15.48-29.07,26.81-30.41,11.33-1.33,17.77-17.17c0,0,.12,48.62-16.21,60.17C289.33,328.45,271.18,308.64,271.18,308.64Z" transform="translate(-6.31 -1.98)"/><path class="cls-4" d="M315.76,243.48s-6.15-1.57-7.44,8.28-3.09,11.22-4.64,16.54c-2.85,9.78,11.43,13.74,11.43,13.74S316.7,256.9,315.76,243.48Z" transform="translate(-6.31 -1.98)"/><path class="cls-8" d="M82.86,244.22s11.53-4.38,27.06,15.78-2.3,41.2,18.62,49.42c0,0-2.19,15.22-13.16,14.27s-5.56-47.07-18.54-56.43-17.38,3.91-25.26-6.93S82.86,244.22,82.86,244.22Z" transform="translate(-6.31 -1.98)"/><path class="cls-7" d="M114.93,331.22l78.73-2.08s-4.06-20.09-10-51.34c-3.39-17.72-25.14-30.35-29.43-72.35L122.78,218s3.13,36.8-2.37,62.45A274,274,0,0,0,114.93,331.22Z" transform="translate(-6.31 -1.98)"/><path class="cls-8" d="M49,145.3s8.42,124.7,92.34,85.34c85.57-40.13-5.63-124.75-5.63-124.75l3.1,36.75L81.79,173.26Z" transform="translate(-6.31 -1.98)"/><path class="cls-8" d="M113,157.82s.87,11.05,11.21,16.46S148,177.17,154,184.21s22.75,12.15,24,.24c3.89-36.91-35.29-77.13-44.75-79.75l2.23,39.76Z" transform="translate(-6.31 -1.98)"/><path class="cls-8" d="M96.4,166S115.07,195,112,209.38s-13.67,24.49-16,28.51-24.58-4.79-38.28-43.22A150.2,150.2,0,0,1,49,145.3l32.75,28Z" transform="translate(-6.31 -1.98)"/><path class="cls-9" d="M76.34,176.09,57,158.86s-.32,15.45,5.55,25.86Z" transform="translate(-6.31 -1.98)"/><circle class="cls-4" cx="87.71" cy="198.78" r="9.52"/><path class="cls-11" d="M90.46,169s13.07,14.77,15.78,15.25-5.85-20.67-7.14-20.08A43.3,43.3,0,0,0,90.46,169Z" transform="translate(-6.31 -1.98)"/><path class="cls-11" d="M101.67,162.8s11.58,18.38,15.43,19.4-3.82-25.54-5.53-24.92A32.94,32.94,0,0,0,101.67,162.8Z" transform="translate(-6.31 -1.98)"/><path class="cls-11" d="M114.78,155.56s7.59,19.36,9.86,19.09,1.87-21.87-1.92-23.12C121.22,151,114.78,155.56,114.78,155.56Z" transform="translate(-6.31 -1.98)"/><path class="cls-7" d="M93.2,195.46s1.86-.21,2.3.73.84,1.92-.22,2.59a2.16,2.16,0,0,1-2.9-.63A1.69,1.69,0,0,1,93.2,195.46Z" transform="translate(-6.31 -1.98)"/><path class="cls-7" d="M96.72,199.08s.52-2,1-2.27,2,.56,1.63,1.78S97,200.23,96.72,199.08Z" transform="translate(-6.31 -1.98)"/><circle class="cls-4" cx="135.25" cy="173.3" r="9.52"/><path class="cls-7" d="M140.74,170s1.86-.2,2.31.74.83,1.92-.23,2.58a2.16,2.16,0,0,1-2.9-.62A1.7,1.7,0,0,1,140.74,170Z" transform="translate(-6.31 -1.98)"/><path class="cls-7" d="M144.26,173.59s.52-2,1-2.26,2.05.56,1.63,1.78S144.54,174.74,144.26,173.59Z" transform="translate(-6.31 -1.98)"/><path class="cls-7" d="M96.48,236s10.79-.46,13.89-8.59c4.17-10.91-11.31-28.44,1-37.47s17.13-10.11,25.2-1,13.08,18,24.55,14.11c17.77-6,16.55-20.83,16.89-14.4.7,13.51-4.87,24.3-31.76,41.54-21,13.47-50.59,10.07-56.22,7.78S87.12,236.52,96.48,236Z" transform="translate(-6.31 -1.98)"/><path class="cls-11" d="M174.8,159.22s-18.38,6.67-17.14,8.65c1.72,2.74,19.88,2.25,19.56.68A55.63,55.63,0,0,0,174.8,159.22Z" transform="translate(-6.31 -1.98)"/><path class="cls-11" d="M169.5,146.51s-7.88,10.23-10,12.71,14.3-1,14.35-2.63C174,154.4,170.05,147.27,169.5,146.51Z" transform="translate(-6.31 -1.98)"/><path class="cls-11" d="M177.57,170.62s-16,4.6-15.09,5.67,15,7,15.63,5.65C179,179.9,178.71,174.82,177.57,170.62Z" transform="translate(-6.31 -1.98)"/><path class="cls-11" d="M68.69,217.55s16.77-9.83,17.51-7.62c1,3.07-10.75,16.73-11.86,15.57A43.56,43.56,0,0,1,68.69,217.55Z" transform="translate(-6.31 -1.98)"/><path class="cls-11" d="M62.18,205.57s12.9.38,16.14.34-9.74,10.24-11.12,9.44C66.74,215.08,62.38,207.11,62.18,205.57Z" transform="translate(-6.31 -1.98)"/><path class="cls-11" d="M75.59,226.75s13.8-9.11,14.08-7.75-4,15.7-5.52,15.67S76.42,228.25,75.59,226.75Z" transform="translate(-6.31 -1.98)"/><path class="cls-8" d="M75.38,178.29s-3.81-5.51-9.4-5l7.28,5.37s-5-3.3-8.37-1.08l6.16,2.46Z" transform="translate(-6.31 -1.98)"/><path class="cls-9" d="M141.26,142.85,139.74,117s12.31,9.35,16.83,20.41Z" transform="translate(-6.31 -1.98)"/><path class="cls-8" d="M143.59,143.46s-2-6.4,1.93-10.46l-.31,9s.53-6,4.35-7.22l-1.9,6.35Z" transform="translate(-6.31 -1.98)"/><path class="cls-4" d="M132.57,159.73a11.88,11.88,0,0,0,9.72-2.61c1.45-1.3.69,4.46-3.47,5.54S132.57,159.73,132.57,159.73Z" transform="translate(-6.31 -1.98)"/><path class="cls-4" d="M86.66,185a11.92,11.92,0,0,1-7.9,6.25c-1.91.38,3.17,3.21,6.52.52S86.66,185,86.66,185Z" transform="translate(-6.31 -1.98)"/><path class="cls-4" d="M121.4,195.44a41.75,41.75,0,0,1,2.32,4.33c0,.73-2.64,12.34-2,11.91,3.91-2.73,4-10.86,4-10.86a15.17,15.17,0,0,0,10.88,2.86c2.72-.41-11.13-5.08-11.13-5.08l-2.25-4.31Z" transform="translate(-6.31 -1.98)"/><path class="cls-10" d="M114,194.2l11.67-6.7a10.83,10.83,0,0,1-.81,9.11C122.34,200.68,114,194.2,114,194.2Z" transform="translate(-6.31 -1.98)"/><path class="cls-8" d="M123.64,238.09s16.46,12.66,17.89,40.28S143,331.22,143,331.22H112.34s2-38.6,8.07-55.8S118.81,244.3,123.64,238.09Z" transform="translate(-6.31 -1.98)"/><path class="cls-8" d="M157.19,222.52s5.6,27.85,9.47,49.35,9.46,51.78,7.31,56.24,27.79,0,27.79,0S187.18,234.53,157.19,222.52Z" transform="translate(-6.31 -1.98)"/><path class="cls-11" d="M89.68,244.31s-2.62,14.55-.76,14.43,7.42-10.34,7.38-11.61S90.55,244.5,89.68,244.31Z" transform="translate(-6.31 -1.98)"/><path class="cls-11" d="M99.11,249.16S94,261.26,94.89,262s10.42-7.43,10.11-7.75S101.46,249.71,99.11,249.16Z" transform="translate(-6.31 -1.98)"/><path class="cls-11" d="M123,259.36s15.25,4.2,14.5,6.1-14.83,4.71-15.61,4.56S123.19,260.36,123,259.36Z" transform="translate(-6.31 -1.98)"/><path class="cls-11" d="M121.34,272.45s14.18,2.66,14.3,4.91-15.95,4.4-17,4S121.34,272.45,121.34,272.45Z" transform="translate(-6.31 -1.98)"/><path class="cls-11" d="M117.9,284.66s16.87-.3,17.74,2.26-19.13,10.31-19.94,10.13S117.49,286.58,117.9,284.66Z" transform="translate(-6.31 -1.98)"/><path class="cls-11" d="M85.64,243.82s1.54,11.29-.92,13.17-6.79-10.89-7.26-10.65S79.76,244,85.64,243.82Z" transform="translate(-6.31 -1.98)"/><path class="cls-12" d="M111.31,315.23s-2.53,113.26,0,119,196.08,0,196.08,0V308.27Z" transform="translate(-6.31 -1.98)"/><path class="cls-13" d="M307.39,345.77s-197.09,9.52-197.07,7.54.38-25.2.38-25.2l196.69,1.3Z" transform="translate(-6.31 -1.98)"/><path class="cls-14" d="M101,298.45H314.11s6.39,27.06,8.2,29.53-227.92,0-227.92,0Z" transform="translate(-6.31 -1.98)"/><path class="cls-4" d="M216.85,184.76s14.43,5.25,14.54,23.89c.16,25.38-28,36.76-15.95,55.71,0,0-10.73,11-19,3.79s23.2-41.33,18.2-56.53-16.35-7.07-16.35-20.47S216.85,184.76,216.85,184.76Z" transform="translate(-6.31 -1.98)"/><g class="cls-15"><path class="cls-16" d="M221.19,342.25c-17,3.07-16.85,17.5-16.81,18.7l0-.05s-9.93-12-25.11-2.23-8.77,44.17,43,48.07l.2,0C257.6,368.53,239,339.05,221.19,342.25Z" transform="translate(-6.31 -1.98)"/><path class="cls-17" d="M221.19,342.25c-17,3.07-16.85,17.5-16.81,18.7l0-.05s-9.93-12-25.11-2.23-8.77,44.17,43,48.07l.2,0C257.6,368.53,239,339.05,221.19,342.25Z" transform="translate(-6.31 -1.98)"/><path class="cls-12" d="M221.73,411h-.13a1.5,1.5,0,0,1-1.37-1.62l1.3-15.3c-4.66-1.79-11.21-4.3-12.46-4.72a2,2,0,0,1-.44-.14,1.51,1.51,0,0,1-.77-1.93,2.8,2.8,0,0,1,.24-.46l6.71-12.75-13.32-6.56a1.5,1.5,0,0,1-.81-1.62l2-10.71a1.5,1.5,0,1,1,2.94.56l-1.82,9.58,13.68,6.74a1.54,1.54,0,0,1,.76.88,1.51,1.51,0,0,1-.1,1.16L211.4,387l.56.21,4.78,1.81,6.92,2.66a1.52,1.52,0,0,1,1,1.53l-1.4,16.41A1.5,1.5,0,0,1,221.73,411Z" transform="translate(-6.31 -1.98)"/></g><path class="cls-7" d="M191.62,306.32s-6.36,23.66,3.19,41.49c4.84,9-8.35,16.51-20.94.08s-11.82-46.25,6.42-62.43S191.62,306.32,191.62,306.32Z" transform="translate(-6.31 -1.98)"/><path class="cls-7" d="M228.2,301.85s7.63,23.29-.95,41.6c-4.34,9.29,9.23,16,20.91-1s8.63-51.84-10.45-67S228.2,301.85,228.2,301.85Z" transform="translate(-6.31 -1.98)"/><path class="cls-7" d="M160.77,197s-45.31,117,47.38,116c94.51-1,44.42-112.94,44.42-112.94l-9,31.73L179,236Z" transform="translate(-6.31 -1.98)"/><path class="cls-4" d="M198.63,234.72s8.34,38.65-11.07,45c-14,4.58-14.8,21.73-19.36,22.71-1.23.27-23.5-16.26-20-56.91A150,150,0,0,1,160.77,197L179,236Z" transform="translate(-6.31 -1.98)"/><path class="cls-4" d="M215.07,233.46s-5.81,39.82,14,44.65c14.34,3.5,16.35,21.27,21,21.9,1.24.17,24.21-19.68,17.67-59.95C263.27,212.61,252.37,195,252.37,195l-18.32,37.33Z" transform="translate(-6.31 -1.98)"/><path class="cls-10" d="M172.85,236.31l-10.41-23.68s-6.7,13.92-5.68,25.83Z" transform="translate(-6.31 -1.98)"/><path class="cls-7" d="M233,240.31a11.91,11.91,0,0,0,9.93,1.66c1.86-.58-1.23,4.34-5.46,3.6S233,240.31,233,240.31Z" transform="translate(-6.31 -1.98)"/><path class="cls-7" d="M179.31,243.42a11.9,11.9,0,0,1-9.78,2.4c-1.89-.44,1.55,4.24,5.72,3.18S179.31,243.42,179.31,243.42Z" transform="translate(-6.31 -1.98)"/><circle class="cls-3" cx="226.51" cy="260.81" r="11.22"/><path class="cls-4" d="M171.06,237.92s-1.18-6.6-6.48-8.43l4.39,7.9s-3.2-5.08-7.16-4.45l4.58,4.79Z" transform="translate(-6.31 -1.98)"/><path class="cls-10" d="M242.54,232.27l9.32-24.13s7.33,13.61,6.85,25.55Z" transform="translate(-6.31 -1.98)"/><path class="cls-4" d="M244.4,233.79s.88-6.64,6.09-8.71l-4,8.09s3-5.22,7-4.77l-4.36,5Z" transform="translate(-6.31 -1.98)"/><circle class="cls-4" cx="226.51" cy="260.81" r="8.27"/><path class="cls-7" d="M234.09,258.31s1.55.51,1.56,1.41,0,1.82-1.11,2a1.89,1.89,0,0,1-2.07-1.55A1.47,1.47,0,0,1,234.09,258.31Z" transform="translate(-6.31 -1.98)"/><path class="cls-7" d="M235.57,262.44s1.14-1.41,1.63-1.42a1.27,1.27,0,0,1,.65,2C237.08,263.83,235.38,263.45,235.57,262.44Z" transform="translate(-6.31 -1.98)"/><circle class="cls-3" cx="173.82" cy="262.82" r="11.22"/><circle class="cls-4" cx="173.82" cy="262.82" r="8.27"/><path class="cls-7" d="M181.39,260.31s1.55.51,1.56,1.41,0,1.82-1.11,2a1.88,1.88,0,0,1-2.07-1.55A1.47,1.47,0,0,1,181.39,260.31Z" transform="translate(-6.31 -1.98)"/><path class="cls-7" d="M182.87,264.44S184,263,184.5,263a1.27,1.27,0,0,1,.65,2C184.38,265.83,182.68,265.46,182.87,264.44Z" transform="translate(-6.31 -1.98)"/><path class="cls-4" d="M206.68,272A42.43,42.43,0,0,1,207,277c-.33.65-7.56,10.1-6.83,10,4.69-.85,8.16-8.21,8.16-8.21a15.23,15.23,0,0,0,8.69,7.15c2.65.76-8-9.27-8-9.27l-.24-4.85Z" transform="translate(-6.31 -1.98)"/><path class="cls-10" d="M200.49,267.84l13.4-1.22a10.81,10.81,0,0,1-4.53,7.94C205.34,277.2,200.49,267.84,200.49,267.84Z" transform="translate(-6.31 -1.98)"/><path class="cls-4" d="M168,336.72s2.92-4.65,9.8-3.07,5.83-7,11.79-7.58c0,0,1,10.8,4.08,17.77s4.59,11.23-2.73,13.55S175.22,355.37,168,336.72Z" transform="translate(-6.31 -1.98)"/><path class="cls-4" d="M252.93,332s-.89-3.81-7.9-2.94c-8,1-7.6-4.47-13.56-5,0,0-.89,9.57-3.95,16.54s-4.58,11.23,2.74,13.55S248.67,350.24,252.93,332Z" transform="translate(-6.31 -1.98)"/><path class="cls-18" d="M178.53,380.16s-17.2-5.69-17.77-6.21,4.07-5.78,3.93-6.91,15.51,3.66,15.92,5.64S178.53,380.16,178.53,380.16Z" transform="translate(-6.31 -1.98)"/><path class="cls-18" d="M254.81,364.6s-17.95,2.47-18.69,2.26,1.1-7,.48-7.94,15.54-3.55,16.77-1.95S254.81,364.6,254.81,364.6Z" transform="translate(-6.31 -1.98)"/><text class="cls-19" transform="translate(97.4 462.41)">Sphinx - Noah &amp; Gluay</text></svg>