<?xml version="1.0" encoding="utf-8"?>
<!-- Generator: Adobe Illustrator 26.0.2, SVG Export Plug-In . SVG Version: 6.00 Build 0)  -->
<svg version="1.1" id="Layer_1" xmlns="http://www.w3.org/2000/svg" xmlns:xlink="http://www.w3.org/1999/xlink" x="0px" y="0px"
	 viewBox="0 0 491 168" style="enable-background:new 0 0 491 168;" xml:space="preserve">
<style type="text/css">
	.st0{fill:#FFFFFF;}
	.st1{fill:#F5EB0D;}
	.st2{fill:#B42F25;}
	.st3{font-family:'Oswald-Bold';}
	.st4{font-size:99.0752px;}
</style>
<path class="st0" d="M79.2,71.8L117,74l-2.5-2.5c-0.6,11.5-9.8,22.9-21.9,23.2C81.1,95,70.8,83.4,73,72c0.6-3.1-4.2-4.5-4.8-1.3
	c-2.8,14.1,8.7,28.3,23,29c15.4,0.7,27.5-13.6,28.3-28.2c0-1.4-1.1-2.5-2.5-2.5l-37.8-2.2C76,66.6,76,71.6,79.2,71.8z"/>
<path class="st0" d="M68,84.7l13.4,1.9c3.2,0.4,4.5-4.4,1.3-4.8l-13.4-1.9C66.2,79.5,64.9,84.3,68,84.7z"/>
<path class="st0" d="M84.2,76.9c-6,4.2-3.6,13.5,3.4,15.1c9,2,14.4-6.9,16.2-14.3c0.3-1.4-0.5-2.7-1.8-3.1c-0.2,0-0.4-0.1-0.6-0.1
	c-4.7-0.6-11.4-0.4-13.2,5.1c-1.2,4,0.9,8.6,5.4,8.7c1.4,0,2.5-1.2,2.5-2.6c0-0.6-0.3-1.2-0.7-1.7c-1.8-1.9-4.9-2-6.8-0.2
	c-0.3,0.3-0.6,0.6-0.8,1c-1.8,2.7,2.5,5.2,4.3,2.5l-0.2,0.2l1.8-4.3c-1.8,0-0.1-3.1,0.7-3.5c2.1-1.1,4.9-0.6,7.1-0.4L99,76.4
	c-1,4.1-2.7,9.1-7.1,10.5c-1.7,0.6-4,0.6-5.3-0.9c-1-1.2-1.3-3.7,0.2-4.7C89.3,79.4,86.8,75,84.2,76.9L84.2,76.9z"/>
<g>
	<path class="st1" d="M31.8,131.6c-19.5-17.5-29.3-42.5-15-72.3c1.1-2.3,15.6-20.8,15.8-20.4c-3.6-9.6-6.2-19.7-7.9-29.9
		c12.2,1.5,21.2,12.6,33.2,15c5,1,10.2,0.4,15.3,0c20-1.7,40.2-0.9,60,2.5c5.7,1,11.3,2.1,17.1,2c13.7-0.2,26.2-7.5,38-14.5
		c-0.5,9.9-4.2,19.4-10.6,26.9c2-2.4,18.2,39.2,18.2,45C195.9,167,79.7,174.7,31.8,131.6z"/>
	<path class="st2" d="M103.2,84.5c-2.1-1.3-4.9-0.6-6.1,1.5c0,0.1-0.1,0.1-0.1,0.1c-1.4,2.7,0.3,5.9,2.8,7.1
		c5.5,2.7,13.5-3.2,10-9.1c-3.1-5.3-11-2.3-10.2,3.7c0.8,5.7,8.7,5.3,10.4,0.5c0.2-0.5,0-1-0.3-1.4c-2.7-2.5-7.3-1.3-8.1,2.4
		c-0.2,0.8,0.2,1.6,1,1.8c1.4,0.4,2.9-0.5,3.3-1.9c0.2-0.9,0-1.9-0.6-2.5c-0.6-0.6-1.5-0.5-2.1,0.1c-0.2,0.3-0.4,0.6-0.4,1
		c0.6,9.5,1.7,19,1.3,28.6c-0.3,6.9-1.9,15-8.7,18.3l1.7,2.3l10-9.2l-2.4-0.6c1,3.7,3.1,7.1,6.1,9.5c1.4,1.2,3.5-0.9,2-2
		c-2.6-2.1-4.5-5-5.4-8.2c-0.2-0.8-1-1.2-1.8-1c-0.2,0.1-0.4,0.2-0.6,0.3l-10,9.2c-1.3,1.2,0.3,3,1.7,2.3c6.7-3.2,9.1-10.6,9.9-17.5
		c1.2-10.5-0.3-21.4-1-31.8l-2.5,1l0.1-0.4l1,1.8c0.2-1.1,1.2-1.8,2.3-1.7c0.4,0.1,0.8,0.2,1,0.5c-0.1-0.5-0.2-0.9-0.3-1.4
		c-0.6,1.6-3.1,2.3-4.3,1c-1.9-2.1,1.5-5.6,3.7-3.7c2.2,1.9,1,4.3-1.2,5.4c-1.3,0.8-2.8,0.9-4.1,0.3c-1.2-0.2-1.8-1-2-2.3
		c0.4-1.4,1.2-1.9,2.4-1.3C103.3,88,104.7,85.5,103.2,84.5L103.2,84.5z"/>
	<path class="st2" d="M163.9,103.8c11.9-2.5,24-4.3,36.1-5.3c1.9-0.1,1.9-3.1,0-2.9c-12.4,1-24.7,2.8-36.8,5.4
		C161.3,101.4,162.1,104.2,163.9,103.8L163.9,103.8z"/>
	<path class="st2" d="M164,115.3c9.5-1.6,19.4-1,28.7,1.6c1.8,0.5,2.5-2.3,0.8-2.8c-9.8-2.7-20.2-3.2-30.3-1.6
		C161.4,112.8,162.1,115.6,164,115.3L164,115.3z"/>
	<path class="st2" d="M162.3,127.2l16.4,4.6c1.8,0.5,2.5-2.3,0.8-2.8l-16.4-4.6C161.3,123.9,160.5,126.7,162.3,127.2z"/>
	<path class="st2" d="M4.9,106.8c10.2-3.8,21.1-5.5,31.9-5.1c1.9,0.1,1.9-2.8,0-2.9c-11.1-0.5-22.3,1.3-32.7,5.2
		C2.4,104.7,3.2,107.5,4.9,106.8L4.9,106.8z"/>
	<path class="st2" d="M10,120.5c7.5-4.8,15.9-8.2,24.6-9.9c1.9-0.3,1-3.1-0.8-2.8c-9,1.8-17.6,5.3-25.3,10.2
		C6.9,119,8.4,121.5,10,120.5z"/>
	<path class="st2" d="M18,134c5.6-5.2,11.9-9.5,18.6-13c1.7-0.8,0.2-3.4-1.4-2.5c-7,3.5-13.5,8-19.3,13.4
		C14.6,133.2,16.6,135.2,18,134L18,134z"/>
	<path class="st2" d="M73.2,87c-13.9,7.6-49-0.5-41.7-22.7c1.9-5.8,12-11.2,24.1-4.2c-2.4-6.6-3.2-15,2.1-19
		c12.8-9.6,21.3,7.6,21.8,24.2C79.6,74,75.4,85.8,73.2,87z"/>
	<path class="st2" d="M141.3,87c-12.2-8.6-19.6-41.7,2.2-44.6c5.7-0.8,14.4,5.6,13.4,18.7c4.6-4.7,11.4-8.9,17-6
		c13.4,6.9,2.3,21.2-11.7,28.4C155.1,87.1,143.3,88.4,141.3,87z"/>
	<path class="st1" d="M378.8,60.9c-10.6,1.5-30.7-12.2-20.7-24.4c2.6-3.2,10.2-4.1,16.2,3.2c0.1-4.7,1.6-10.2,5.9-11.4
		c10.4-2.9,11.6,9.9,7.8,20.5C386,54.3,380.5,60.7,378.8,60.9z"/>
</g>
<text transform="matrix(1 0 0 1 210.9883 122.8228)" class="st1 st3 st4">Sphinx</text>
</svg>
